ply
format ascii 1.0
comment Created by Blender 2.79 (sub 0) - www.blender.org, source file: 'industry.blend'
element vertex 80
property float x
property float y
property float z
property float nx
property float ny
property float nz
property uchar red
property uchar green
property uchar blue
element face 46
property list uchar uint vertex_indices
end_header
1.000000 1.000000 0.866360 1.000000 0.000000 0.000000 255 255 255
1.000000 -1.000000 0.866360 1.000000 0.000000 0.000000 255 255 255
1.000000 -1.000000 0.000000 1.000000 0.000000 0.000000 255 255 255
1.000000 1.000000 0.000000 1.000000 0.000000 -0.000000 255 255 255
-1.000000 -1.000000 0.000000 0.000000 -1.000000 -0.000000 255 255 255
0.500000 -1.000000 0.866360 0.000000 -1.000000 -0.000000 255 255 255
0.000000 -1.000000 0.866360 0.000000 -1.000000 -0.000000 255 255 255
1.000000 -1.000000 0.866360 0.000000 -1.000000 0.000000 255 255 255
1.000000 -1.000000 0.000000 0.000000 -1.000000 0.000000 255 255 255
-1.000000 -1.000000 1.266360 -1.000000 0.000000 0.000000 255 255 255
-1.000000 1.000000 1.266360 -1.000000 0.000000 0.000000 255 255 255
-1.000000 1.000000 0.000000 -1.000000 0.000000 0.000000 255 255 255
-1.000000 -1.000000 0.000000 -1.000000 0.000000 0.000000 255 255 255
1.000000 1.000000 0.000000 0.000000 1.000000 0.000000 255 255 255
-0.500000 1.000000 0.866360 0.000000 1.000000 0.000000 255 255 255
0.000000 1.000000 0.866360 0.000000 1.000000 0.000000 255 255 255
-1.000000 1.000000 0.000000 -0.000000 1.000000 0.000000 255 255 255
-1.000000 1.000000 1.266360 -0.000000 1.000000 0.000000 255 255 255
1.000000 1.000000 0.000000 0.000000 0.000000 -1.000000 255 255 255
1.000000 -1.000000 0.000000 0.000000 0.000000 -1.000000 255 255 255
-1.000000 -1.000000 0.000000 0.000000 0.000000 -1.000000 255 255 255
-1.000000 1.000000 0.000000 0.000000 0.000000 -1.000000 255 255 255
0.000000 1.000000 0.866360 0.624695 -0.000000 0.780869 255 255 255
-0.500000 1.000000 1.266360 0.624695 -0.000000 0.780869 255 255 255
-0.500000 -1.000000 1.266360 0.624695 -0.000000 0.780869 255 255 255
0.500000 1.000000 0.866360 0.624695 -0.000000 0.780869 255 255 255
0.000000 1.000000 1.266360 0.624695 -0.000000 0.780869 255 255 255
0.000000 -1.000000 1.266360 0.624695 -0.000000 0.780869 255 255 255
-0.500000 1.000000 1.266360 -1.000000 0.000000 0.000000 255 255 255
-0.500000 1.000000 0.866360 -1.000000 0.000000 0.000000 255 255 255
-0.500000 -1.000000 0.866360 -1.000000 0.000000 0.000000 255 255 255
0.500000 1.000000 1.266360 -1.000000 0.000000 0.000000 255 255 255
0.500000 1.000000 0.866360 -1.000000 0.000000 0.000000 255 255 255
0.500000 -1.000000 0.866360 -1.000000 0.000000 0.000000 255 255 255
0.000000 1.000000 1.266360 -1.000000 0.000000 0.000000 255 255 255
0.000000 1.000000 0.866360 -1.000000 0.000000 0.000000 255 255 255
0.000000 -1.000000 0.866360 -1.000000 0.000000 0.000000 255 255 255
-0.500000 1.000000 0.866360 0.624695 -0.000000 0.780869 255 255 255
-1.000000 1.000000 1.266360 0.624695 -0.000000 0.780869 255 255 255
-1.000000 -1.000000 1.266360 0.624695 -0.000000 0.780869 255 255 255
1.000000 1.000000 0.866360 0.624695 -0.000000 0.780869 255 255 255
0.500000 1.000000 1.266360 0.624695 -0.000000 0.780869 255 255 255
0.500000 -1.000000 1.266360 0.624695 -0.000000 0.780869 255 255 255
-0.759630 0.378188 1.991323 -1.000000 0.000000 0.000000 0 0 0
-0.759630 0.819358 0.710979 -1.000000 0.000000 0.000000 0 0 0
-0.759630 0.378188 0.710979 -1.000000 0.000000 0.000000 0 0 0
0.500000 1.000000 0.866360 0.000000 1.000000 0.000000 255 255 255
1.000000 1.000000 0.866360 0.000000 1.000000 0.000000 255 255 255
0.000000 1.000000 1.266360 -0.000000 1.000000 0.000000 255 255 255
0.500000 1.000000 1.266360 -0.000000 1.000000 0.000000 255 255 255
-0.500000 1.000000 1.266360 0.000000 1.000000 -0.000000 255 255 255
-0.500000 -1.000000 0.866360 0.000000 -1.000000 -0.000000 255 255 255
-1.000000 -1.000000 1.266360 0.000000 -1.000000 -0.000000 255 255 255
-0.500000 -1.000000 1.266360 -0.000000 -1.000000 -0.000000 255 255 255
0.000000 -1.000000 1.266360 -0.000000 -1.000000 -0.000000 255 255 255
0.500000 -1.000000 1.266360 -0.000000 -1.000000 -0.000000 255 255 255
-0.759630 0.819358 1.991323 0.000000 1.000000 -0.000000 0 0 0
-0.318460 0.819358 0.710979 0.000000 1.000000 -0.000000 0 0 0
-0.759630 0.819358 0.710979 0.000000 1.000000 -0.000000 0 0 0
-0.318460 0.819358 1.991323 1.000000 0.000000 -0.000000 0 0 0
-0.318460 0.378188 0.710979 1.000000 0.000000 -0.000000 0 0 0
-0.318460 0.819358 0.710979 1.000000 0.000000 -0.000000 0 0 0
-0.318460 0.378188 1.991323 0.000000 -1.000000 0.000000 0 0 0
-0.759630 0.378188 0.710979 0.000000 -1.000000 0.000000 0 0 0
-0.318460 0.378188 0.710979 0.000000 -1.000000 0.000000 14 14 14
-0.759630 0.819358 1.991323 0.000000 0.000000 1.000000 0 0 0
-0.318460 0.378188 1.991323 0.000000 0.000000 1.000000 0 0 0
-0.318460 0.819358 1.991323 0.000000 0.000000 1.000000 0 0 0
0.000000 -1.000000 0.866360 0.624695 0.000000 0.780869 255 255 255
0.500000 -1.000000 0.866360 0.624695 0.000000 0.780869 255 255 255
-0.500000 -1.000000 1.266360 -1.000000 0.000000 0.000000 255 255 255
0.500000 -1.000000 1.266360 -1.000000 0.000000 0.000000 255 255 255
0.000000 -1.000000 1.266360 -1.000000 0.000000 0.000000 255 255 255
-0.500000 -1.000000 0.866360 0.624695 0.000000 0.780869 255 255 255
1.000000 -1.000000 0.866360 0.624695 0.000000 0.780869 255 255 255
-0.759630 0.819358 1.991323 -1.000000 0.000000 0.000000 0 0 0
-0.318460 0.819358 1.991323 0.000000 1.000000 -0.000000 0 0 0
-0.318460 0.378188 1.991323 1.000000 0.000000 0.000000 0 0 0
-0.759630 0.378188 1.991323 0.000000 -1.000000 0.000000 0 0 0
-0.759630 0.378188 1.991323 0.000000 -0.000000 1.000000 0 0 0
3 0 1 2
3 0 2 3
3 4 5 6
3 7 4 8
3 9 10 11
3 9 11 12
3 13 14 15
3 14 16 17
3 18 19 20
3 18 20 21
3 22 23 24
3 25 26 27
3 28 29 30
3 31 32 33
3 34 35 36
3 37 38 39
3 40 41 42
3 43 44 45
3 13 46 47
3 46 15 48
3 47 46 49
3 50 15 14
3 13 15 46
3 4 51 52
3 51 6 53
3 6 5 54
3 5 7 55
3 4 6 51
3 5 4 7
3 14 13 16
3 56 57 58
3 59 60 61
3 62 63 64
3 65 66 67
3 22 24 68
3 25 27 69
3 28 30 70
3 31 33 71
3 34 36 72
3 37 39 73
3 40 42 74
3 43 75 44
3 56 76 57
3 59 77 60
3 62 78 63
3 65 79 66
