ply
format ascii 1.0
comment Created by Blender 2.79 (sub 0) - www.blender.org, source file: ''
element vertex 40
property float x
property float y
property float z
property float nx
property float ny
property float nz
element face 46
property list uchar uint vertex_indices
end_header
1.000000 1.000000 0.866360 -0.706168 -0.621357 -0.339396
1.000000 -1.000000 0.000000 -0.577349 0.577349 0.577349
1.000000 -1.000000 0.866360 -0.706168 0.621357 -0.339396
1.000000 1.000000 0.000000 -0.577349 -0.577349 0.577349
-1.000000 -1.000000 0.000000 0.577349 0.577349 0.577349
0.000000 -1.000000 0.866360 0.106082 0.969512 -0.220740
0.500000 -1.000000 0.866360 0.106082 0.969512 -0.220740
-1.000000 -1.000000 1.266360 0.361797 0.549913 -0.752770
-1.000000 1.000000 0.000000 0.577349 -0.577349 0.577349
-1.000000 1.000000 1.266360 0.361797 -0.549913 -0.752770
0.000000 1.000000 0.866360 0.106082 -0.969512 -0.220740
-0.500000 1.000000 0.866360 0.106082 -0.969512 -0.220740
-0.500000 -1.000000 1.266360 0.361797 0.549913 -0.752770
-0.500000 1.000000 1.266360 0.361797 -0.549913 -0.752770
0.500000 1.000000 0.866360 0.106082 -0.969512 -0.220740
0.000000 -1.000000 1.266360 0.361797 0.549913 -0.752770
0.000000 1.000000 1.266360 0.361797 -0.549913 -0.752770
-0.500000 -1.000000 0.866360 0.106082 0.969512 -0.220740
0.500000 1.000000 1.266360 0.361797 -0.549913 -0.752770
0.500000 -1.000000 1.266360 0.361797 0.549913 -0.752770
-0.759630 0.378188 1.946351 -1.000000 0.000000 0.000000
-0.759630 0.819358 0.666007 -1.000000 0.000000 0.000000
-0.759630 0.378188 0.666007 -1.000000 0.000000 0.000000
-0.759630 0.819358 1.946351 0.000000 1.000000 -0.000000
-0.318460 0.819358 0.666007 0.000000 1.000000 -0.000000
-0.759630 0.819358 0.666007 0.000000 1.000000 -0.000000
-0.318460 0.819358 1.946351 1.000000 0.000000 -0.000000
-0.318460 0.378188 0.666007 1.000000 0.000000 -0.000000
-0.318460 0.819358 0.666007 1.000000 0.000000 -0.000000
-0.318460 0.378188 1.946351 0.000000 -1.000000 0.000000
-0.759630 0.378188 0.666007 0.000000 -1.000000 0.000000
-0.318460 0.378188 0.666007 0.000000 -1.000000 0.000000
-0.759630 0.819358 1.946351 0.000000 0.000000 1.000000
-0.318460 0.378188 1.946351 0.000000 0.000000 1.000000
-0.318460 0.819358 1.946351 0.000000 0.000000 1.000000
-0.759630 0.819358 1.946351 -1.000000 0.000000 0.000000
-0.318460 0.819358 1.946351 0.000000 1.000000 -0.000000
-0.318460 0.378188 1.946351 1.000000 0.000000 0.000000
-0.759630 0.378188 1.946351 0.000000 -1.000000 0.000000
-0.759630 0.378188 1.946351 0.000000 -0.000000 1.000000
3 0 1 2
3 0 3 1
3 4 5 6
3 2 1 4
3 7 8 9
3 7 4 8
3 3 10 11
3 11 9 8
3 3 4 1
3 3 8 4
3 10 12 13
3 14 15 16
3 13 17 11
3 18 6 14
3 16 5 10
3 11 7 9
3 0 19 18
3 20 21 22
3 3 0 14
3 14 16 10
3 0 18 14
3 13 11 10
3 3 14 10
3 4 7 17
3 17 12 5
3 5 15 6
3 6 19 2
3 4 17 5
3 6 2 4
3 11 8 3
3 23 24 25
3 26 27 28
3 29 30 31
3 32 33 34
3 10 5 12
3 14 6 15
3 13 12 17
3 18 19 6
3 16 15 5
3 11 17 7
3 0 2 19
3 20 35 21
3 23 36 24
3 26 37 27
3 29 38 30
3 32 39 33
