ply
format ascii 1.0
comment Created by Blender 2.79 (sub 0) - www.blender.org, source file: 'industry.blend'
element vertex 40
property float x
property float y
property float z
property float nx
property float ny
property float nz
property uchar red
property uchar green
property uchar blue
element face 46
property list uchar uint vertex_indices
end_header
1.000000 1.000000 0.866360 0.706168 0.621357 0.339396 255 255 255
1.000000 -1.000000 0.866360 0.706168 -0.621357 0.339396 255 255 255
1.000000 -1.000000 0.000000 0.577349 -0.577349 -0.577349 255 255 255
1.000000 1.000000 0.000000 0.577349 0.577349 -0.577349 255 255 255
-1.000000 -1.000000 0.000000 -0.577349 -0.577349 -0.577349 255 255 255
0.500000 -1.000000 0.866360 -0.106082 -0.969512 0.220740 255 255 255
0.000000 -1.000000 0.866360 -0.106082 -0.969512 0.220740 255 255 255
-1.000000 -1.000000 1.266360 -0.361797 -0.549913 0.752770 255 255 255
-1.000000 1.000000 1.266360 -0.361797 0.549913 0.752770 255 255 255
-1.000000 1.000000 0.000000 -0.577349 0.577349 -0.577349 255 255 255
-0.500000 1.000000 0.866360 -0.106082 0.969512 0.220740 255 255 255
0.000000 1.000000 0.866360 -0.106082 0.969512 0.220740 255 255 255
-0.500000 1.000000 1.266360 -0.361797 0.549913 0.752770 255 255 255
-0.500000 -1.000000 1.266360 -0.361797 -0.549913 0.752770 255 255 255
0.500000 1.000000 0.866360 -0.106082 0.969512 0.220740 255 255 255
0.000000 1.000000 1.266360 -0.361797 0.549913 0.752770 255 255 255
0.000000 -1.000000 1.266360 -0.361797 -0.549913 0.752770 255 255 255
-0.500000 -1.000000 0.866360 -0.106082 -0.969512 0.220740 255 255 255
0.500000 1.000000 1.266360 -0.361797 0.549913 0.752770 255 255 255
0.500000 -1.000000 1.266360 -0.361797 -0.549913 0.752770 255 255 255
-0.759630 0.378188 1.991323 -1.000000 0.000000 0.000000 0 0 0
-0.759630 0.819358 0.710979 -1.000000 0.000000 0.000000 0 0 0
-0.759630 0.378188 0.710979 -1.000000 0.000000 0.000000 0 0 0
-0.759630 0.819358 1.991323 0.000000 1.000000 -0.000000 0 0 0
-0.318460 0.819358 0.710979 0.000000 1.000000 -0.000000 0 0 0
-0.759630 0.819358 0.710979 0.000000 1.000000 -0.000000 0 0 0
-0.318460 0.819358 1.991323 1.000000 0.000000 -0.000000 0 0 0
-0.318460 0.378188 0.710979 1.000000 0.000000 -0.000000 0 0 0
-0.318460 0.819358 0.710979 1.000000 0.000000 -0.000000 0 0 0
-0.318460 0.378188 1.991323 0.000000 -1.000000 0.000000 0 0 0
-0.759630 0.378188 0.710979 0.000000 -1.000000 0.000000 0 0 0
-0.318460 0.378188 0.710979 0.000000 -1.000000 0.000000 14 14 14
-0.759630 0.819358 1.991323 0.000000 0.000000 1.000000 0 0 0
-0.318460 0.378188 1.991323 0.000000 0.000000 1.000000 0 0 0
-0.318460 0.819358 1.991323 0.000000 0.000000 1.000000 0 0 0
-0.759630 0.819358 1.991323 -1.000000 0.000000 0.000000 0 0 0
-0.318460 0.819358 1.991323 0.000000 1.000000 -0.000000 0 0 0
-0.318460 0.378188 1.991323 1.000000 0.000000 0.000000 0 0 0
-0.759630 0.378188 1.991323 0.000000 -1.000000 0.000000 0 0 0
-0.759630 0.378188 1.991323 0.000000 -0.000000 1.000000 0 0 0
3 0 1 2
3 0 2 3
3 4 5 6
3 1 4 2
3 7 8 9
3 7 9 4
3 3 10 11
3 10 9 8
3 3 2 4
3 3 4 9
3 11 12 13
3 14 15 16
3 12 10 17
3 18 14 5
3 15 11 6
3 10 8 7
3 0 18 19
3 20 21 22
3 3 14 0
3 14 11 15
3 0 14 18
3 12 11 10
3 3 11 14
3 4 17 7
3 17 6 13
3 6 5 16
3 5 1 19
3 4 6 17
3 5 4 1
3 10 3 9
3 23 24 25
3 26 27 28
3 29 30 31
3 32 33 34
3 11 13 6
3 14 16 5
3 12 17 13
3 18 5 19
3 15 6 16
3 10 7 17
3 0 19 1
3 20 35 21
3 23 36 24
3 26 37 27
3 29 38 30
3 32 39 33
