ply
format ascii 1.0
comment Created by Blender 2.79 (sub 0) - www.blender.org, source file: 'LittleRedDiesel.blend'
element vertex 361
property float x
property float y
property float z
property float nx
property float ny
property float nz
property uchar red
property uchar green
property uchar blue
element face 210
property list uchar uint vertex_indices
end_header
-0.958673 -0.003323 0.618197 -0.978508 0.000000 0.206209 255 0 0
-0.915403 0.310826 0.823524 -0.978508 0.000000 0.206209 255 0 0
-0.958673 0.372130 0.618197 -0.978508 0.000000 0.206209 255 0 0
-0.207836 0.372130 0.618197 0.000000 0.999150 0.041216 255 0 0
0.806435 0.372130 0.618197 0.000000 0.999150 0.041216 255 0 0
0.903251 0.384625 0.315290 0.000000 0.999150 0.041216 255 0 0
0.820933 0.299709 0.002515 0.000000 0.000000 -1.000000 255 0 0
0.988468 -0.003323 0.002515 0.000000 0.000000 -1.000000 255 0 0
0.820933 -0.003323 0.002515 0.000000 0.000000 -1.000000 255 0 0
0.903251 -0.003323 0.310522 0.218608 -0.011991 0.975739 255 0 0
0.988468 0.384625 0.296197 0.218608 -0.011991 0.975739 255 0 0
0.903251 0.384625 0.315290 0.218608 -0.011991 0.975739 255 0 0
-0.991685 -0.391271 0.296197 -0.775376 -0.631500 -0.000000 255 0 0
-0.958673 -0.431804 0.002515 -0.775376 -0.631500 -0.000000 255 0 0
-0.958673 -0.431804 0.296197 -0.775376 -0.631500 -0.000000 255 0 0
0.820933 0.425158 0.296197 0.000000 1.000000 0.000000 255 0 0
0.058245 0.425158 0.002515 0.000000 1.000000 0.000000 255 0 0
-0.195985 0.425158 0.002515 0.000000 1.000000 0.000000 255 0 0
-0.958673 0.384625 0.315290 -0.000000 0.426129 0.904662 255 0 0
0.820933 0.425158 0.296197 -0.000000 0.426129 0.904662 255 0 0
-0.958673 0.425158 0.296197 -0.000000 0.426129 0.904662 255 0 0
-0.958673 0.299709 0.002515 -0.000000 0.000000 -1.000000 255 0 0
-0.704444 0.425158 0.002515 -0.000000 0.000000 -1.000000 255 0 0
-0.704444 0.299709 0.002515 -0.000000 0.000000 -1.000000 255 0 0
-0.289971 0.310826 0.823524 0.928469 0.000000 0.371409 255 0 0
-0.282168 0.029433 0.804018 0.928469 0.000000 0.371409 255 0 0
-0.282168 0.283894 0.804018 0.928469 0.000000 0.371409 255 0 0
0.988468 -0.003323 0.296197 1.000000 0.000000 0.000000 255 0 0
0.988468 0.384625 0.002515 1.000000 0.000000 0.000000 255 0 0
0.988468 0.384625 0.296197 1.000000 0.000000 0.000000 255 0 0
-0.289971 0.310826 0.823524 0.000000 -0.000000 1.000000 255 0 0
-0.602687 0.310826 0.823524 0.000000 -0.000000 1.000000 255 0 0
-0.289971 -0.003323 0.823524 0.000000 -0.000000 1.000000 255 0 0
0.903251 0.384625 0.315290 0.162208 0.670456 0.724001 255 0 0
0.988468 0.384625 0.296197 0.162208 0.670456 0.724001 255 0 0
0.820933 0.425158 0.296197 0.162208 0.670456 0.724001 255 0 0
0.988468 0.384625 0.002515 0.235152 0.971959 0.000000 255 0 0
0.820933 0.425158 0.296197 0.235152 0.971959 0.000000 255 0 0
0.988468 0.384625 0.296197 0.235152 0.971959 0.000000 255 0 0
0.820933 0.425158 0.002515 0.000000 0.000000 -1.000000 255 0 0
0.988468 0.384625 0.002515 0.000000 0.000000 -1.000000 255 0 0
0.806435 0.372130 0.618197 0.000000 -0.000000 1.000000 255 0 0
-0.207836 -0.003323 0.618197 0.000000 -0.000000 1.000000 255 0 0
0.806435 -0.003323 0.618197 0.000000 -0.000000 1.000000 255 0 0
-0.958673 0.384625 0.315290 -0.000000 0.999150 0.041216 255 0 0
0.903251 -0.003323 0.310522 0.953889 -0.000000 0.300160 255 0 0
0.806435 0.372130 0.618197 0.953889 -0.000000 0.300160 255 0 0
0.806435 -0.003323 0.618197 0.953889 -0.000000 0.300160 255 0 0
-0.991685 -0.003323 0.002515 -1.000000 0.000000 0.000000 255 0 0
-0.991685 -0.391271 0.296197 -1.000000 0.000000 0.000000 255 0 0
-0.991685 -0.003323 0.296197 -1.000000 0.000000 0.000000 255 0 0
-0.583255 0.372130 0.618197 0.000000 0.999150 0.041216 255 0 0
-0.583255 0.372130 0.618197 0.000000 0.958202 0.286091 255 0 0
-0.250456 0.366000 0.638730 0.000000 0.958202 0.286091 255 0 0
-0.207836 0.372130 0.618197 0.000000 0.958202 0.286091 255 0 0
-0.915403 -0.317471 0.823524 -0.978508 0.000000 0.206209 255 0 0
-0.915403 -0.003323 0.823524 -0.978508 0.000000 0.206209 255 0 0
-0.207836 -0.378776 0.618197 0.000000 -0.999150 0.041216 255 0 0
0.903251 -0.391271 0.315290 0.000000 -0.999150 0.041216 255 0 0
0.806435 -0.378776 0.618197 0.000000 -0.999150 0.041216 255 0 0
0.820933 -0.306354 0.002515 0.000000 0.000000 -1.000000 255 0 0
0.988468 -0.391271 0.296197 0.218608 0.011991 0.975739 255 0 0
0.903251 -0.003323 0.310522 0.218608 0.011991 0.975739 255 0 0
0.903251 -0.391271 0.315290 0.218608 0.011991 0.975739 255 0 0
0.566704 -0.431804 0.002515 0.000000 -1.000000 -0.000000 255 0 0
0.820933 -0.431804 0.296197 0.000000 -1.000000 -0.000000 255 0 0
0.058245 -0.431804 0.002515 0.000000 -1.000000 -0.000000 255 0 0
-0.958673 -0.391271 0.315290 0.000000 -0.426130 0.904662 255 0 0
0.820933 -0.431804 0.296197 0.000000 -0.426130 0.904662 255 0 0
0.903251 -0.391271 0.315290 0.000000 -0.426130 0.904662 255 0 0
-0.704444 -0.431804 0.002515 -0.000000 -0.000000 -1.000000 255 0 0
-0.958673 -0.306354 0.002515 -0.000000 -0.000000 -1.000000 255 0 0
-0.704444 -0.306354 0.002515 -0.000000 -0.000000 -1.000000 255 0 0
-0.289971 -0.317471 0.823524 0.928470 -0.000002 0.371407 255 0 0
-0.215639 -0.340196 0.637703 0.928470 -0.000002 0.371407 255 0 0
-0.282168 -0.290539 0.804018 0.928470 -0.000002 0.371407 255 0 0
0.988468 -0.391271 0.002515 1.000000 -0.000000 0.000000 255 0 0
0.988468 -0.391271 0.296197 1.000000 -0.000000 0.000000 255 0 0
-0.915403 -0.003323 0.823524 0.000000 0.000000 1.000000 255 0 0
-0.602687 -0.317471 0.823524 0.000000 0.000000 1.000000 255 0 0
0.903251 -0.391271 0.315290 0.162208 -0.670456 0.724001 255 0 0
0.820933 -0.431804 0.296197 0.162208 -0.670456 0.724001 255 0 0
0.988468 -0.391271 0.296197 0.162208 -0.670456 0.724001 255 0 0
0.820933 -0.431804 0.296197 0.235152 -0.971959 0.000000 255 0 0
0.988468 -0.391271 0.002515 0.235152 -0.971959 0.000000 255 0 0
0.988468 -0.391271 0.296197 0.235152 -0.971959 0.000000 255 0 0
0.820933 -0.431804 0.002515 -0.000000 -0.000000 -1.000000 255 0 0
0.988468 -0.391271 0.002515 -0.000000 -0.000000 -1.000000 255 0 0
0.806435 -0.378776 0.618197 0.000000 0.000000 1.000000 255 0 0
-0.958673 -0.391271 0.315290 0.000000 -0.999150 0.041216 255 0 0
0.903251 -0.003323 0.310522 0.952567 0.003740 0.304308 255 0 0
0.806435 -0.378776 0.618197 0.952567 0.003740 0.304308 255 0 0
0.903251 -0.391271 0.315290 0.952567 0.003740 0.304308 255 0 0
-0.991685 0.384625 0.002515 -1.000000 0.000000 0.000000 255 0 0
-0.991685 0.384625 0.296197 -1.000000 0.000000 0.000000 255 0 0
-0.583255 -0.378776 0.618197 0.000000 -0.999150 0.041216 255 0 0
-0.289971 -0.317471 0.823524 -0.000000 -0.958203 0.286090 255 0 0
-0.250456 -0.372645 0.638730 -0.000000 -0.958203 0.286090 255 0 0
-0.207836 -0.378776 0.618197 -0.000000 -0.958203 0.286090 255 0 0
-0.958673 -0.003323 0.310356 -0.394180 0.000000 0.919033 255 0 0
-0.991685 0.384625 0.296197 -0.394180 0.000000 0.919033 255 0 0
-0.991685 -0.003323 0.296197 -0.394180 0.000000 0.919033 255 0 0
-0.958673 -0.391271 0.315290 -0.463594 -0.377571 0.801574 255 0 0
-0.991685 -0.391271 0.296197 -0.463594 -0.377571 0.801574 255 0 0
-0.958673 -0.431804 0.296197 -0.463594 -0.377571 0.801574 255 0 0
-0.958673 -0.003323 0.310356 -1.000000 -0.000000 -0.000000 255 0 0
-0.958673 -0.378776 0.618197 -1.000000 -0.000000 -0.000000 255 0 0
-0.958673 -0.003323 0.618197 -1.000000 -0.000000 -0.000000 255 0 0
-0.958673 0.372130 0.618197 -1.000000 0.000000 0.000000 255 0 0
-0.991685 -0.003323 0.002515 -0.000000 -0.000000 -1.000000 255 0 0
-0.958673 -0.003323 0.002515 -0.000000 -0.000000 -1.000000 255 0 0
-0.958673 -0.003323 0.310356 -0.500621 0.011008 0.865596 255 0 0
-0.991685 -0.391271 0.296197 -0.500621 0.011008 0.865596 255 0 0
-0.958673 -0.391271 0.315290 -0.500621 0.011008 0.865596 255 0 0
-0.991685 0.384625 0.002515 0.000000 0.000000 -1.000000 255 0 0
-0.958673 0.384625 0.315290 -0.463594 0.377571 0.801574 255 0 0
-0.958673 0.425158 0.296197 -0.463594 0.377571 0.801574 255 0 0
-0.991685 0.384625 0.296197 -0.463594 0.377571 0.801574 255 0 0
-0.958673 0.425158 0.002515 -0.775376 0.631500 0.000000 255 0 0
-0.991685 0.384625 0.296197 -0.775376 0.631500 0.000000 255 0 0
-0.958673 0.425158 0.296197 -0.775376 0.631500 0.000000 255 0 0
-0.958673 0.425158 0.002515 -0.000000 0.000000 -1.000000 255 0 0
-0.958673 -0.431804 0.002515 0.000000 -0.000000 -1.000000 255 0 0
-0.991685 -0.391271 0.002515 0.000000 -0.000000 -1.000000 255 0 0
-0.215639 0.029433 0.637703 0.928470 -0.000000 0.371406 255 255 255
-0.282168 0.283894 0.804018 0.928470 -0.000000 0.371406 255 255 255
-0.282168 0.029433 0.804018 0.928470 -0.000000 0.371406 255 255 255
-0.207836 -0.003323 0.618197 0.928470 -0.000002 0.371407 255 0 0
-0.282168 0.029433 0.804018 0.928470 -0.000002 0.371407 255 0 0
-0.289971 -0.003323 0.823524 0.928470 -0.000002 0.371407 255 0 0
-0.289971 0.310826 0.823524 0.928470 -0.000002 0.371407 255 0 0
-0.215639 0.333550 0.637703 0.928470 -0.000002 0.371407 255 0 0
-0.207836 0.372130 0.618197 0.928470 -0.000002 0.371407 255 0 0
-0.207836 -0.003323 0.618197 0.928469 -0.000000 0.371409 255 0 0
-0.215639 0.333550 0.637703 0.928469 -0.000000 0.371409 255 0 0
-0.215639 0.029433 0.637703 0.928469 -0.000000 0.371409 255 0 0
-0.215639 -0.036079 0.637703 0.928470 0.000000 0.371406 255 255 255
-0.282168 -0.290539 0.804018 0.928470 0.000000 0.371406 255 255 255
-0.215639 -0.340196 0.637703 0.928470 0.000000 0.371406 255 255 255
-0.215639 -0.340196 0.637703 0.928469 0.000000 0.371409 255 0 0
-0.207836 -0.378776 0.618197 0.928469 0.000000 0.371409 255 0 0
-0.215639 -0.036079 0.637703 0.928470 -0.000002 0.371407 255 0 0
-0.289971 -0.317471 0.823524 0.928469 0.000000 0.371409 255 0 0
-0.282168 -0.036079 0.804018 0.928469 0.000000 0.371409 255 0 0
-0.289971 -0.003323 0.823524 0.928469 0.000000 0.371409 255 0 0
-0.915403 -0.317471 0.823524 0.000000 -0.958203 0.286090 255 0 0
-0.919940 -0.372645 0.638730 0.000000 -0.958203 0.286090 255 0 0
-0.885323 -0.323602 0.802991 0.000000 -0.958203 0.286090 255 0 0
-0.919940 0.366000 0.638730 0.000000 0.958202 0.286091 255 0 0
-0.619605 0.366000 0.638730 0.000000 0.958202 0.286091 255 0 0
-0.316164 0.316956 0.802991 0.000000 0.958203 0.286091 255 255 255
-0.550791 0.366000 0.638730 0.000000 0.958203 0.286091 255 255 255
-0.566337 0.316956 0.802991 0.000000 0.958203 0.286091 255 255 255
-0.289971 0.310826 0.823524 -0.000001 0.958203 0.286091 255 0 0
-0.250456 0.366000 0.638730 -0.000001 0.958203 0.286091 255 0 0
-0.316164 0.316956 0.802991 -0.000001 0.958203 0.286091 255 0 0
-0.289971 0.310826 0.823524 0.000000 0.958203 0.286090 255 0 0
-0.566337 0.316956 0.802991 0.000000 0.958203 0.286090 255 0 0
-0.602687 0.310826 0.823524 0.000000 0.958203 0.286090 255 0 0
-0.566337 0.316956 0.802991 -0.000000 0.958202 0.286091 255 0 0
-0.550791 0.366000 0.638730 -0.000000 0.958202 0.286091 255 0 0
-0.885323 0.316956 0.802991 -0.000000 0.958202 0.286091 255 255 255
-0.619605 0.366000 0.638730 -0.000000 0.958202 0.286091 255 255 255
-0.919940 0.366000 0.638730 -0.000000 0.958202 0.286091 255 255 255
-0.915403 0.310826 0.823524 0.000000 0.958203 0.286091 255 0 0
-0.919940 0.366000 0.638730 0.000000 0.958203 0.286091 255 0 0
-0.958673 0.372130 0.618197 0.000000 0.958203 0.286091 255 0 0
-0.915403 0.310826 0.823524 -0.000000 0.958203 0.286090 255 0 0
-0.635150 0.316956 0.802991 -0.000000 0.958203 0.286090 255 0 0
-0.885323 0.316956 0.802991 -0.000000 0.958203 0.286090 255 0 0
-0.602687 0.310826 0.823524 -0.000001 0.958202 0.286091 255 0 0
-0.619605 0.366000 0.638730 -0.000001 0.958202 0.286091 255 0 0
-0.635150 0.316956 0.802991 -0.000001 0.958202 0.286091 255 0 0
-0.550791 -0.372645 0.638730 0.000000 -0.958203 0.286091 255 255 255
-0.316164 -0.323602 0.802991 0.000000 -0.958203 0.286091 255 255 255
-0.566337 -0.323602 0.802991 0.000000 -0.958203 0.286091 255 255 255
-0.583255 -0.378776 0.618197 0.000000 -0.958203 0.286091 255 0 0
-0.566337 -0.323602 0.802991 0.000000 -0.958203 0.286091 255 0 0
-0.602687 -0.317471 0.823524 0.000000 -0.958203 0.286091 255 0 0
-0.583255 -0.378776 0.618197 0.000000 -0.958202 0.286091 255 0 0
-0.250456 -0.372645 0.638730 0.000000 -0.958202 0.286091 255 0 0
-0.550791 -0.372645 0.638730 0.000000 -0.958202 0.286091 255 0 0
-0.566337 -0.323602 0.802991 0.000000 -0.958203 0.286090 255 0 0
-0.316164 -0.323602 0.802991 0.000000 -0.958203 0.286090 255 0 0
-0.885323 -0.323602 0.802991 0.000000 -0.958203 0.286091 255 255 255
-0.619605 -0.372645 0.638730 0.000000 -0.958203 0.286091 255 255 255
-0.635150 -0.323602 0.802991 0.000000 -0.958203 0.286091 255 255 255
-0.619605 -0.372645 0.638730 -0.000000 -0.958203 0.286091 255 0 0
-0.635150 -0.323602 0.802991 0.000000 -0.958203 0.286090 255 0 0
-0.602687 -0.317471 0.823524 0.000000 -0.958203 0.286090 255 0 0
-0.919940 -0.372645 0.638730 0.000000 -0.958202 0.286091 255 0 0
-0.958673 -0.378776 0.618197 0.000000 -0.958202 0.286091 255 0 0
0.566704 0.299709 0.002515 0.000000 0.000000 -1.000000 255 0 0
0.312474 -0.306354 0.002515 -0.000000 0.000000 -1.000000 255 0 0
0.566704 -0.306354 0.002515 -0.000000 0.000000 -1.000000 255 0 0
0.058245 -0.306354 0.002515 -0.000000 0.000000 -1.000000 255 0 0
0.312474 0.299709 0.002515 -0.000000 0.000000 -1.000000 255 0 0
-0.195985 -0.306354 0.002515 -0.000000 0.000000 -1.000000 255 0 0
0.058245 0.299709 0.002515 -0.000000 0.000000 -1.000000 255 0 0
-0.450214 -0.306354 0.002515 -0.000000 0.000000 -1.000000 255 0 0
-0.195985 0.299709 0.002515 -0.000000 0.000000 -1.000000 255 0 0
-0.450214 0.299709 0.002515 -0.000000 0.000000 -1.000000 255 0 0
0.058245 -0.431804 0.002515 -0.000000 -0.000000 -1.000000 255 0 0
-0.704444 -0.431804 0.002515 -1.000000 0.000000 0.000000 255 0 0
-0.704444 -0.306354 0.002515 -1.000000 0.000000 0.000000 255 0 0
-0.704444 -0.306354 -0.197485 -1.000000 0.000000 0.000000 255 0 0
-0.195985 -0.306354 0.002515 -0.000000 1.000000 0.000000 255 0 0
-0.450214 -0.306354 -0.197485 -0.000000 1.000000 0.000000 255 0 0
-0.450214 -0.306354 0.002515 -0.000000 1.000000 0.000000 255 0 0
0.058245 0.425158 0.002515 -0.000000 0.000000 -1.000000 255 0 0
-0.195985 -0.306354 0.002515 1.000000 0.000000 -0.000000 255 0 0
-0.195985 -0.431804 0.002515 1.000000 0.000000 -0.000000 255 0 0
-0.195985 -0.306354 -0.197485 1.000000 0.000000 -0.000000 255 0 0
0.058245 -0.431804 0.002515 0.000000 -0.847142 -0.531367 255 0 0
0.312474 -0.306354 -0.197485 0.000000 -0.847142 -0.531367 255 0 0
0.566704 -0.431804 0.002515 0.000000 -0.847142 -0.531367 255 0 0
0.566704 0.425158 0.002515 0.000000 0.847142 -0.531367 255 0 0
0.312474 0.299709 -0.197485 0.000000 0.847142 -0.531367 255 0 0
0.058245 0.425158 0.002515 0.000000 0.847142 -0.531367 255 0 0
-0.704444 -0.431804 0.002515 0.000000 -0.847142 -0.531367 255 0 0
-0.450214 -0.306354 -0.197485 0.000000 -0.847142 -0.531367 255 0 0
-0.195985 -0.431804 0.002515 0.000000 -0.847142 -0.531367 255 0 0
-0.704444 -0.306354 -0.197485 -0.000000 1.000000 0.000000 255 0 0
-0.704444 -0.306354 0.002515 -0.000000 1.000000 0.000000 255 0 0
0.566704 0.425158 0.002515 1.000000 0.000000 0.000000 255 0 0
0.566704 0.299709 0.002515 1.000000 0.000000 0.000000 255 0 0
0.566704 0.299709 -0.197485 1.000000 0.000000 0.000000 255 0 0
0.312474 0.299709 0.002515 -0.000000 -1.000000 -0.000000 255 0 0
0.566704 0.299709 -0.197485 -0.000000 -1.000000 -0.000000 255 0 0
0.566704 0.299709 0.002515 -0.000000 -1.000000 -0.000000 255 0 0
0.058245 0.299709 0.002515 -1.000000 0.000000 0.000000 255 0 0
0.058245 0.425158 0.002515 -1.000000 0.000000 0.000000 255 0 0
0.058245 0.299709 -0.197485 -1.000000 0.000000 0.000000 255 0 0
0.058245 0.299709 0.002515 -0.000000 -1.000000 -0.000000 255 0 0
0.312474 0.299709 -0.197485 -0.000000 -1.000000 -0.000000 255 0 0
-0.195985 0.425158 0.002515 1.000000 0.000000 0.000000 255 0 0
-0.195985 0.299709 0.002515 1.000000 0.000000 0.000000 255 0 0
-0.195985 0.299709 -0.197485 1.000000 0.000000 0.000000 255 0 0
-0.704444 0.299709 0.002515 -1.000000 0.000000 0.000000 255 0 0
-0.704444 0.425158 0.002515 -1.000000 0.000000 0.000000 255 0 0
-0.704444 0.299709 -0.197485 -1.000000 0.000000 0.000000 255 0 0
0.566704 -0.306354 0.002515 -0.000000 1.000000 0.000000 255 0 0
0.312474 -0.306354 -0.197485 -0.000000 1.000000 0.000000 255 0 0
0.312474 -0.306354 0.002515 -0.000000 1.000000 0.000000 255 0 0
0.566704 -0.306354 0.002515 1.000000 0.000000 -0.000000 255 0 0
0.566704 -0.431804 0.002515 1.000000 0.000000 -0.000000 255 0 0
0.566704 -0.306354 -0.197485 1.000000 0.000000 -0.000000 255 0 0
-0.450214 0.299709 0.002515 -0.000000 -1.000000 -0.000000 255 0 0
-0.195985 0.299709 -0.197485 -0.000000 -1.000000 -0.000000 255 0 0
-0.195985 0.299709 0.002515 -0.000000 -1.000000 -0.000000 255 0 0
0.058245 -0.306354 -0.197485 -0.000000 1.000000 0.000000 255 0 0
0.058245 -0.306354 0.002515 -0.000000 1.000000 0.000000 255 0 0
0.058245 -0.431804 0.002515 -1.000000 0.000000 0.000000 255 0 0
0.058245 -0.306354 0.002515 -1.000000 0.000000 0.000000 255 0 0
0.058245 -0.306354 -0.197485 -1.000000 0.000000 0.000000 255 0 0
-0.704444 0.299709 0.002515 -0.000000 -1.000000 -0.000000 255 0 0
-0.450214 0.299709 -0.197485 -0.000000 -1.000000 -0.000000 255 0 0
-0.195985 0.425158 0.002515 0.000000 0.847142 -0.531367 255 0 0
-0.450214 0.299709 -0.197485 0.000000 0.847142 -0.531367 255 0 0
-0.704444 0.425158 0.002515 0.000000 0.847142 -0.531367 255 0 0
0.903251 -0.003323 0.310522 0.165774 0.000000 0.986164 255 0 0
0.988468 -0.003323 0.296197 0.165774 0.000000 0.986164 255 0 0
0.988468 0.384625 0.296197 0.165774 0.000000 0.986164 255 0 0
-0.991685 -0.391271 0.296197 -0.775375 -0.631501 0.000000 255 0 0
-0.991685 -0.391271 0.002515 -0.775375 -0.631501 0.000000 255 0 0
-0.958673 -0.431804 0.002515 -0.775375 -0.631501 0.000000 255 0 0
-0.704444 0.425158 0.002515 -0.000000 1.000000 0.000000 255 0 0
-0.958673 0.425158 0.002515 -0.000000 1.000000 0.000000 255 0 0
-0.958673 0.425158 0.296197 -0.000000 1.000000 0.000000 255 0 0
0.566704 0.425158 0.002515 -0.000000 1.000000 0.000000 255 0 0
0.820933 0.425158 0.002515 0.000000 1.000000 0.000000 255 0 0
0.903251 0.384625 0.315290 0.000000 0.426129 0.904662 255 0 0
0.988468 -0.003323 0.002515 1.000000 0.000000 -0.000000 255 0 0
-0.915403 0.310826 0.823524 0.000000 0.000000 1.000000 255 0 0
0.820933 0.425158 0.002515 0.235152 0.971959 0.000000 255 0 0
-0.207836 0.372130 0.618197 0.000000 0.000000 1.000000 255 0 0
0.903251 -0.003323 0.310522 0.952567 -0.003740 0.304308 255 0 0
0.903251 0.384625 0.315290 0.952567 -0.003740 0.304308 255 0 0
0.806435 0.372130 0.618197 0.952567 -0.003740 0.304308 255 0 0
-0.991685 -0.391271 0.002515 -1.000000 0.000000 0.000000 255 0 0
-0.958673 0.372130 0.618197 0.000000 0.999150 0.041216 255 0 0
-0.958673 -0.378776 0.618197 -0.978508 0.000000 0.206209 255 0 0
0.988468 -0.391271 0.296197 0.165774 0.000000 0.986164 255 0 0
-0.958673 -0.431804 0.296197 0.000000 -1.000000 0.000000 255 0 0
-0.958673 -0.431804 0.002515 0.000000 -1.000000 0.000000 255 0 0
-0.704444 -0.431804 0.002515 0.000000 -1.000000 0.000000 255 0 0
-0.195985 -0.431804 0.002515 -0.000000 -1.000000 0.000000 255 0 0
0.820933 -0.431804 0.002515 0.000000 -1.000000 0.000000 255 0 0
-0.958673 -0.431804 0.296197 0.000000 -0.426130 0.904662 255 0 0
-0.289971 -0.317471 0.823524 0.928470 0.000002 0.371407 255 0 0
-0.207836 -0.378776 0.618197 0.928470 0.000002 0.371407 255 0 0
-0.215639 -0.340196 0.637703 0.928470 0.000002 0.371407 255 0 0
-0.289971 -0.317471 0.823524 -0.000000 0.000000 1.000000 255 0 0
-0.915403 -0.317471 0.823524 0.000000 -0.000000 1.000000 255 0 0
0.820933 -0.431804 0.002515 0.235152 -0.971959 0.000000 255 0 0
-0.207836 -0.378776 0.618197 0.000000 -0.000000 1.000000 255 0 0
0.806435 -0.378776 0.618197 0.953889 -0.000000 0.300160 255 0 0
-0.958673 -0.378776 0.618197 0.000000 -0.999150 0.041216 255 0 0
-0.958673 -0.003323 0.310356 -0.500621 -0.011008 0.865596 255 0 0
-0.958673 0.384625 0.315290 -0.500621 -0.011008 0.865596 255 0 0
-0.991685 0.384625 0.296197 -0.500621 -0.011008 0.865596 255 0 0
-0.958673 -0.391271 0.315290 -1.000000 0.000000 -0.000000 255 0 0
-0.958673 0.384625 0.315290 -1.000000 0.000000 0.000000 255 0 0
-0.991685 -0.391271 0.296197 -0.394180 0.000000 0.919033 255 0 0
-0.958673 0.425158 0.002515 -0.775375 0.631500 0.000000 255 0 0
-0.991685 0.384625 0.002515 -0.775375 0.631500 0.000000 255 0 0
-0.991685 0.384625 0.296197 -0.775375 0.631500 0.000000 255 0 0
-0.215639 0.333550 0.637703 0.928470 0.000000 0.371406 255 255 255
-0.207836 -0.003323 0.618197 0.928470 0.000002 0.371406 255 0 0
-0.215639 0.029433 0.637703 0.928470 0.000002 0.371406 255 0 0
-0.282168 0.029433 0.804018 0.928470 0.000002 0.371406 255 0 0
-0.289971 0.310826 0.823524 0.928470 0.000002 0.371407 255 0 0
-0.282168 0.283894 0.804018 0.928470 0.000002 0.371407 255 0 0
-0.215639 0.333550 0.637703 0.928470 0.000002 0.371407 255 0 0
-0.207836 0.372130 0.618197 0.928469 0.000000 0.371409 255 0 0
-0.282168 -0.036079 0.804018 0.928470 -0.000000 0.371406 255 255 255
-0.215639 -0.036079 0.637703 0.928469 -0.000000 0.371409 255 0 0
-0.289971 -0.003323 0.823524 0.928470 0.000002 0.371406 255 0 0
-0.282168 -0.036079 0.804018 0.928470 0.000002 0.371406 255 0 0
-0.215639 -0.036079 0.637703 0.928470 0.000002 0.371406 255 0 0
-0.282168 -0.290539 0.804018 0.928469 0.000000 0.371409 255 0 0
-0.915403 -0.317471 0.823524 0.000000 -0.958203 0.286091 255 0 0
-0.958673 -0.378776 0.618197 0.000000 -0.958203 0.286091 255 0 0
-0.919940 -0.372645 0.638730 0.000000 -0.958203 0.286091 255 0 0
-0.958673 0.372130 0.618197 -0.000000 0.958202 0.286091 255 0 0
-0.316164 0.316956 0.802991 -0.000000 0.958202 0.286091 255 255 255
-0.250456 0.366000 0.638730 -0.000000 0.958202 0.286091 255 255 255
-0.550791 0.366000 0.638730 -0.000000 0.958202 0.286091 255 255 255
-0.289971 0.310826 0.823524 0.000000 0.958202 0.286091 255 0 0
-0.316164 0.316956 0.802991 -0.000000 0.958203 0.286090 255 0 0
-0.602687 0.310826 0.823524 0.000000 0.958202 0.286091 255 0 0
-0.635150 0.316956 0.802991 0.000000 0.958202 0.286091 255 255 255
-0.915403 0.310826 0.823524 0.000001 0.958202 0.286091 255 0 0
-0.885323 0.316956 0.802991 0.000001 0.958202 0.286091 255 0 0
-0.919940 0.366000 0.638730 0.000001 0.958202 0.286091 255 0 0
-0.602687 0.310826 0.823524 0.000000 0.958203 0.286091 255 0 0
-0.583255 0.372130 0.618197 0.000000 0.958203 0.286091 255 0 0
-0.619605 0.366000 0.638730 0.000000 0.958203 0.286091 255 0 0
-0.250456 -0.372645 0.638730 0.000000 -0.958203 0.286091 255 255 255
-0.566337 -0.323602 0.802991 0.000000 -0.958202 0.286091 255 0 0
-0.207836 -0.378776 0.618197 0.000000 -0.958203 0.286091 255 0 0
-0.250456 -0.372645 0.638730 0.000000 -0.958203 0.286091 255 0 0
-0.919940 -0.372645 0.638730 0.000000 -0.958203 0.286091 255 255 255
-0.635150 -0.323602 0.802991 -0.000000 -0.958203 0.286091 255 0 0
-0.619605 -0.372645 0.638730 0.000000 -0.958202 0.286091 255 0 0
0.566704 -0.431804 0.002515 0.000000 0.000000 -1.000000 255 0 0
-0.195985 -0.431804 0.002515 0.000000 0.000000 -1.000000 255 0 0
0.566704 0.425158 0.002515 -0.000000 -0.000000 -1.000000 255 0 0
-0.195985 -0.306354 -0.197485 0.000000 1.000000 0.000000 255 0 0
-0.195985 0.425158 0.002515 -0.000000 -0.000000 -1.000000 255 0 0
0.566704 -0.306354 -0.197485 0.000000 -0.847142 -0.531367 255 0 0
0.058245 -0.306354 -0.197485 -0.000000 -0.847142 -0.531367 255 0 0
0.058245 0.299709 -0.197485 0.000000 0.847142 -0.531367 255 0 0
0.566704 0.299709 -0.197485 0.000000 0.847142 -0.531367 255 0 0
-0.195985 -0.306354 -0.197485 0.000000 -0.847142 -0.531367 255 0 0
-0.704444 -0.306354 -0.197485 -0.000000 -0.847142 -0.531367 255 0 0
0.058245 0.299709 -0.197485 0.000000 -1.000000 0.000000 255 0 0
0.566704 -0.306354 -0.197485 0.000000 1.000000 0.000000 255 0 0
-0.704444 0.299709 -0.197485 0.000000 -1.000000 0.000000 255 0 0
-0.704444 0.299709 -0.197485 0.000000 0.847142 -0.531367 255 0 0
-0.195985 0.299709 -0.197485 0.000000 0.847142 -0.531367 255 0 0
3 0 1 2
3 3 4 5
3 6 7 8
3 9 10 11
3 12 13 14
3 15 16 17
3 18 19 20
3 21 22 23
3 24 25 26
3 27 28 29
3 30 31 32
3 33 34 35
3 36 37 38
3 39 40 6
3 41 42 43
3 5 44 3
3 45 46 47
3 48 49 50
3 44 51 3
3 52 53 54
3 0 55 56
3 57 58 59
3 7 60 8
3 61 62 63
3 64 65 66
3 67 68 69
3 70 71 72
3 73 74 75
3 76 27 77
3 78 79 32
3 80 81 82
3 83 84 85
3 86 60 87
3 42 88 43
3 58 57 89
3 90 91 92
3 93 50 94
3 95 89 57
3 96 97 98
3 99 100 101
3 102 103 104
3 105 106 107
3 108 105 107
3 71 109 110
3 111 112 113
3 21 109 114
3 115 116 117
3 118 119 120
3 114 121 21
3 122 123 71
3 124 125 126
3 127 128 129
3 130 131 132
3 133 134 135
3 136 137 138
3 133 139 140
3 129 141 127
3 142 143 144
3 145 146 147
3 52 148 149
3 150 151 152
3 153 154 155
3 156 157 158
3 52 159 160
3 161 162 163
3 164 165 166
3 167 168 169
3 170 171 172
3 173 174 175
3 176 177 178
3 179 180 181
3 96 182 183
3 184 185 186
3 178 187 176
3 145 188 189
3 179 190 191
3 71 110 72
3 192 6 8
3 193 192 194
3 195 196 193
3 197 198 195
3 199 200 197
3 72 201 199
3 86 194 60
3 202 197 195
3 203 204 205
3 192 39 6
3 206 207 208
3 200 209 198
3 210 211 212
3 213 214 215
3 216 217 218
3 219 220 221
3 208 222 223
3 224 225 226
3 227 228 229
3 230 231 232
3 233 234 227
3 235 236 237
3 238 239 240
3 241 242 243
3 244 245 246
3 247 248 249
3 243 250 251
3 252 253 254
3 255 256 247
3 257 258 259
3 0 56 1
3 6 40 7
3 260 261 262
3 263 264 265
3 266 267 268
3 268 15 17
3 269 16 15
3 15 270 269
3 17 266 268
3 18 271 19
3 21 121 22
3 24 144 25
3 27 272 28
3 78 32 31
3 31 273 78
3 36 274 37
3 41 275 42
3 276 277 278
3 48 279 49
3 44 280 51
3 52 160 53
3 0 281 55
3 7 87 60
3 282 261 260
3 283 284 285
3 286 66 65
3 283 285 286
3 287 65 64
3 283 286 65
3 67 288 68
3 70 122 71
3 289 290 291
3 76 272 27
3 292 32 79
3 78 293 79
3 83 294 84
3 42 295 88
3 45 47 296
3 93 48 50
3 95 297 89
3 96 183 97
3 298 299 300
3 105 301 106
3 108 302 105
3 71 123 109
3 99 101 303
3 21 110 109
3 304 305 306
3 124 307 125
3 308 309 310
3 311 312 313
3 133 314 134
3 136 315 137
3 133 316 139
3 317 318 319
3 142 320 143
3 321 322 323
3 52 324 148
3 325 326 327
3 328 54 53
3 156 329 157
3 52 330 159
3 161 331 162
3 332 333 334
3 167 158 168
3 335 336 337
3 173 338 174
3 179 181 339
3 176 340 341
3 96 189 182
3 184 342 185
3 178 343 187
3 145 147 188
3 179 344 190
3 23 72 110
3 110 21 23
3 8 60 194
3 194 192 8
3 193 196 192
3 195 198 196
3 197 200 198
3 199 201 200
3 72 23 201
3 86 345 194
3 202 346 197
3 192 347 39
3 206 348 207
3 200 349 209
3 350 215 214
3 213 351 214
3 352 218 217
3 216 353 217
3 354 221 220
3 219 355 220
3 208 207 222
3 227 234 228
3 233 356 234
3 241 357 242
3 247 256 248
3 243 242 250
3 255 358 256
3 359 259 258
3 257 360 258
