ply
format ascii 1.0
comment Created by Blender 2.79 (sub 0) - www.blender.org, source file: ''
element vertex 264
property float x
property float y
property float z
property float nx
property float ny
property float nz
property uchar red
property uchar green
property uchar blue
element face 224
property list uchar uint vertex_indices
end_header
0.933634 -0.431804 0.002515 0.000000 -1.000000 0.000000 255 0 0
0.666878 -0.431804 0.053970 0.000000 -1.000000 0.000000 255 0 0
0.666878 -0.431804 0.002515 0.000000 -1.000000 0.000000 255 0 0
-0.967958 0.299709 0.002515 -0.000000 0.000000 -1.000000 255 0 0
-0.666900 0.425158 0.002515 -0.000000 0.000000 -1.000000 255 0 0
-0.666900 0.299709 0.002515 -0.000000 0.000000 -1.000000 255 0 0
-0.967958 -0.431804 0.002515 -1.000000 -0.000000 0.000000 255 0 0
-0.967958 -0.306354 0.053970 -1.000000 -0.000000 0.000000 255 0 0
-0.967958 -0.306354 0.002515 -1.000000 -0.000000 0.000000 255 0 0
0.933634 -0.431804 0.053970 0.000000 -1.000000 0.000000 255 0 0
0.666878 -0.431804 0.399143 0.000000 -1.000000 0.000000 255 0 0
-0.967958 0.299709 0.053970 -1.000000 -0.000000 0.000000 255 0 0
-0.967958 0.425158 0.399143 -1.000000 -0.000000 0.000000 255 0 0
-0.967958 0.425158 0.053970 -1.000000 -0.000000 0.000000 255 0 0
-0.133389 0.425158 0.002515 0.000000 1.000000 -0.000000 255 0 0
0.133367 0.425158 0.053970 0.000000 1.000000 -0.000000 255 0 0
0.133367 0.425158 0.002515 0.000000 1.000000 -0.000000 255 0 0
-0.944587 -0.406456 0.053970 0.000000 1.000000 -0.000000 255 255 255
-0.650929 -0.406456 0.399143 0.000000 1.000000 -0.000000 255 255 255
-0.650929 -0.406456 0.053970 0.000000 1.000000 -0.000000 255 255 255
-0.666900 -0.431804 0.002515 -0.000000 -0.000000 -1.000000 255 0 0
-0.967958 -0.306354 0.002515 -0.000000 -0.000000 -1.000000 255 0 0
-0.666900 -0.306354 0.002515 -0.000000 -0.000000 -1.000000 255 0 0
-0.133389 0.425158 0.053970 0.000000 1.000000 -0.000000 255 0 0
0.133367 0.425158 0.399143 0.000000 1.000000 -0.000000 255 0 0
0.133367 -0.431804 0.399143 0.000000 -1.000000 0.000000 255 0 0
0.133367 -0.431804 0.053970 0.000000 -1.000000 0.000000 255 0 0
-0.967958 0.425158 0.053970 0.000000 1.000000 -0.000000 255 0 0
-0.666900 0.425158 0.399143 0.000000 1.000000 -0.000000 255 0 0
-0.666900 0.425158 0.053970 0.000000 1.000000 -0.000000 255 0 0
-0.967958 0.299709 0.002515 -1.000000 -0.000000 0.000000 255 0 0
-0.967958 0.425158 0.002515 -1.000000 -0.000000 0.000000 255 0 0
0.650064 0.399811 0.053970 0.000000 -1.000000 0.000000 255 255 255
0.129667 0.399811 0.399143 0.000000 -1.000000 0.000000 255 255 255
0.129667 0.399811 0.053970 0.000000 -1.000000 0.000000 255 255 255
-0.967958 -0.431804 0.053970 -1.000000 -0.000000 0.000000 255 0 0
-0.967958 -0.306354 0.399143 -1.000000 -0.000000 0.000000 255 0 0
-0.133389 -0.431804 0.399143 0.000000 -1.000000 0.000000 255 0 0
-0.133389 -0.431804 0.053970 0.000000 -1.000000 0.000000 255 0 0
0.933634 -0.003323 0.002515 1.000000 -0.000000 0.000000 255 0 0
0.933634 -0.306354 0.053970 1.000000 -0.000000 0.000000 255 0 0
0.933634 -0.306354 0.002515 1.000000 -0.000000 0.000000 255 0 0
0.933634 0.425158 0.053970 1.000000 -0.000000 0.000000 255 0 0
0.933634 0.299709 0.399143 1.000000 -0.000000 0.000000 255 0 0
0.933634 0.299709 0.053970 1.000000 -0.000000 0.000000 255 0 0
0.666878 0.425158 0.053970 0.000000 1.000000 -0.000000 255 0 0
0.666878 0.425158 0.002515 0.000000 1.000000 -0.000000 255 0 0
-0.967958 -0.003323 0.002515 -1.000000 0.000000 0.000000 255 0 0
-0.967958 -0.003323 0.053970 -1.000000 0.000000 0.000000 255 0 0
0.933634 0.425158 0.053970 0.000000 1.000000 -0.000000 255 0 0
0.933634 0.425158 0.002515 0.000000 1.000000 -0.000000 255 0 0
-0.133389 -0.431804 0.002515 0.000000 -1.000000 0.000000 255 0 0
-0.666900 -0.431804 0.053970 0.000000 -1.000000 0.000000 255 0 0
-0.666900 -0.431804 0.002515 0.000000 -1.000000 0.000000 255 0 0
-0.967958 -0.431804 0.053970 0.000000 -1.000000 0.000000 255 0 0
-0.967958 -0.431804 0.002515 0.000000 -1.000000 0.000000 255 0 0
0.933634 -0.431804 0.053970 1.000000 -0.000000 0.000000 255 0 0
0.933634 -0.431804 0.002515 1.000000 -0.000000 0.000000 255 0 0
0.933634 0.299709 0.002515 1.000000 -0.000000 0.000000 255 0 0
0.933634 -0.003323 0.053970 1.000000 -0.000000 0.000000 255 0 0
0.933634 0.425158 0.002515 1.000000 -0.000000 0.000000 255 0 0
-0.967958 0.425158 0.002515 0.000000 1.000000 -0.000000 255 0 0
-0.666900 0.425158 0.002515 0.000000 1.000000 -0.000000 255 0 0
0.133367 -0.431804 0.002515 0.000000 -1.000000 0.000000 255 0 0
0.910262 -0.406456 0.053970 -1.000000 -0.000000 0.000000 255 255 255
0.910262 -0.288428 0.399143 -1.000000 -0.000000 0.000000 255 255 255
0.910262 -0.288428 0.053970 -1.000000 -0.000000 0.000000 255 255 255
-0.666900 -0.431804 0.399143 0.000000 -1.000000 0.000000 255 0 0
-0.967958 -0.431804 0.399143 0.000000 -1.000000 0.000000 255 0 0
-0.967958 -0.003323 0.002515 -0.000000 -0.000000 -1.000000 255 0 0
0.933634 -0.003323 0.002515 0.000000 0.000000 -1.000000 255 0 0
0.933634 -0.306354 0.002515 0.000000 0.000000 -1.000000 255 0 0
0.666878 -0.306354 0.002515 0.000000 0.000000 -1.000000 255 0 0
0.666878 0.299709 0.002515 -0.000000 -0.000000 -1.000000 255 0 0
0.933634 0.299709 0.002515 -0.000000 -0.000000 -1.000000 255 0 0
0.400122 -0.306354 0.002515 -0.000000 0.000000 -1.000000 255 0 0
0.133367 -0.306354 0.002515 -0.000000 0.000000 -1.000000 255 0 0
0.400122 0.299709 0.002515 -0.000000 0.000000 -1.000000 255 0 0
-0.133389 -0.306354 0.002515 -0.000000 0.000000 -1.000000 255 0 0
0.133367 0.299709 0.002515 -0.000000 0.000000 -1.000000 255 0 0
-0.400144 -0.306354 0.002515 -0.000000 0.000000 -1.000000 255 0 0
-0.133389 0.299709 0.002515 -0.000000 0.000000 -1.000000 255 0 0
-0.400144 0.299709 0.002515 -0.000000 0.000000 -1.000000 255 0 0
0.933634 -0.431804 0.002515 -0.000000 -0.000000 -1.000000 255 0 0
0.133367 -0.431804 0.002515 -0.000000 -0.000000 -1.000000 255 0 0
-0.666900 -0.431804 0.002515 -1.000000 0.000000 0.000000 255 0 0
-0.666900 -0.306354 0.002515 -1.000000 0.000000 0.000000 255 0 0
-0.666900 -0.306354 -0.197485 -1.000000 0.000000 0.000000 255 0 0
0.933634 0.425158 0.002515 -0.000000 0.000000 -1.000000 255 0 0
-0.133389 -0.306354 0.002515 -0.000000 1.000000 0.000000 255 0 0
-0.400144 -0.306354 -0.197485 -0.000000 1.000000 0.000000 255 0 0
-0.400144 -0.306354 0.002515 -0.000000 1.000000 0.000000 255 0 0
0.133367 0.425158 0.002515 -0.000000 0.000000 -1.000000 255 0 0
-0.133389 -0.306354 0.002515 1.000000 0.000000 -0.000000 255 0 0
-0.133389 -0.431804 0.002515 1.000000 0.000000 -0.000000 255 0 0
-0.133389 -0.306354 -0.197485 1.000000 0.000000 -0.000000 255 0 0
0.666878 -0.306354 -0.197485 0.000000 -0.847140 -0.531369 255 0 0
0.666878 -0.431804 0.002515 0.000000 -0.847140 -0.531369 255 0 0
0.133367 -0.431804 0.002515 0.000000 -0.847140 -0.531369 255 0 0
0.133367 -0.431804 0.002515 -0.000000 -0.847141 -0.531369 255 0 0
0.133367 -0.306354 -0.197485 -0.000000 -0.847141 -0.531369 255 0 0
0.400122 -0.306354 -0.197485 -0.000000 -0.847141 -0.531369 255 0 0
0.400122 -0.306354 -0.197485 -0.000000 -0.847140 -0.531369 255 0 0
0.133367 0.299709 -0.197485 0.000000 0.847142 -0.531366 255 0 0
0.133367 0.425158 0.002515 0.000000 0.847142 -0.531366 255 0 0
0.666878 0.425158 0.002515 0.000000 0.847142 -0.531366 255 0 0
0.666878 0.299709 -0.197485 0.000000 0.847142 -0.531366 255 0 0
0.400122 0.299709 -0.197485 0.000000 0.847142 -0.531366 255 0 0
-0.133389 -0.306354 -0.197485 0.000000 -0.847140 -0.531369 255 0 0
-0.133389 -0.431804 0.002515 0.000000 -0.847140 -0.531369 255 0 0
-0.666900 -0.431804 0.002515 0.000000 -0.847140 -0.531369 255 0 0
-0.666900 -0.306354 -0.197485 -0.000000 -0.847140 -0.531369 255 0 0
-0.400144 -0.306354 -0.197485 -0.000000 -0.847140 -0.531369 255 0 0
-0.666900 -0.306354 -0.197485 -0.000000 1.000000 0.000000 255 0 0
-0.666900 -0.306354 0.002515 -0.000000 1.000000 0.000000 255 0 0
0.666878 0.425158 0.002515 1.000000 0.000000 0.000000 255 0 0
0.666878 0.299709 0.002515 1.000000 0.000000 0.000000 255 0 0
0.666878 0.299709 -0.197485 1.000000 0.000000 0.000000 255 0 0
0.400122 0.299709 0.002515 -0.000000 -1.000000 -0.000000 255 0 0
0.666878 0.299709 -0.197485 -0.000000 -1.000000 -0.000000 255 0 0
0.666878 0.299709 0.002515 -0.000000 -1.000000 -0.000000 255 0 0
0.133367 0.299709 0.002515 -1.000000 0.000000 0.000000 255 0 0
0.133367 0.425158 0.002515 -1.000000 0.000000 0.000000 255 0 0
0.133367 0.299709 -0.197485 -1.000000 0.000000 0.000000 255 0 0
0.133367 0.299709 0.002515 -0.000000 -1.000000 -0.000000 255 0 0
0.400122 0.299709 -0.197485 -0.000000 -1.000000 -0.000000 255 0 0
-0.133389 0.425158 0.002515 1.000000 0.000000 0.000000 255 0 0
-0.133389 0.299709 0.002515 1.000000 0.000000 0.000000 255 0 0
-0.133389 0.299709 -0.197485 1.000000 0.000000 0.000000 255 0 0
-0.666900 0.299709 0.002515 -1.000000 0.000000 0.000000 255 0 0
-0.666900 0.425158 0.002515 -1.000000 0.000000 0.000000 255 0 0
-0.666900 0.299709 -0.197485 -1.000000 0.000000 0.000000 255 0 0
0.666878 -0.306354 0.002515 -0.000000 1.000000 0.000000 255 0 0
0.400122 -0.306354 -0.197485 -0.000000 1.000000 0.000000 255 0 0
0.400122 -0.306354 0.002515 -0.000000 1.000000 0.000000 255 0 0
0.666878 -0.306354 0.002515 1.000000 0.000000 -0.000000 255 0 0
0.666878 -0.431804 0.002515 1.000000 0.000000 -0.000000 255 0 0
0.666878 -0.306354 -0.197485 1.000000 0.000000 -0.000000 255 0 0
-0.400144 0.299709 0.002515 -0.000000 -1.000000 -0.000000 255 0 0
-0.133389 0.299709 -0.197485 -0.000000 -1.000000 -0.000000 255 0 0
-0.133389 0.299709 0.002515 -0.000000 -1.000000 -0.000000 255 0 0
0.133367 -0.306354 -0.197485 -0.000000 1.000000 0.000000 255 0 0
0.133367 -0.306354 0.002515 -0.000000 1.000000 0.000000 255 0 0
0.133367 -0.431804 0.002515 -1.000000 0.000000 0.000000 255 0 0
0.133367 -0.306354 0.002515 -1.000000 0.000000 0.000000 255 0 0
0.133367 -0.306354 -0.197485 -1.000000 0.000000 0.000000 255 0 0
-0.666900 0.299709 0.002515 -0.000000 -1.000000 -0.000000 255 0 0
-0.400144 0.299709 -0.197485 -0.000000 -1.000000 -0.000000 255 0 0
-0.666900 0.299709 -0.197485 0.000000 0.847142 -0.531366 255 0 0
-0.666900 0.425158 0.002515 0.000000 0.847142 -0.531366 255 0 0
-0.133389 0.425158 0.002515 0.000000 0.847142 -0.531366 255 0 0
-0.133389 0.299709 -0.197485 0.000000 0.847142 -0.531366 255 0 0
-0.400144 0.299709 -0.197485 0.000000 0.847142 -0.531366 255 0 0
-0.944587 0.281783 0.053970 -0.000000 0.000000 1.000000 255 255 255
-0.650929 0.399811 0.053970 -0.000000 0.000000 1.000000 255 255 255
-0.944587 0.399811 0.053970 -0.000000 0.000000 1.000000 255 255 255
0.910262 -0.003323 0.053970 0.000000 0.000000 1.000000 255 255 255
0.910262 0.281783 0.053970 0.000000 0.000000 1.000000 255 255 255
0.650064 0.399811 0.053970 0.000000 0.000000 1.000000 255 255 255
-0.944587 -0.003323 0.053970 0.000000 0.000000 1.000000 255 255 255
-0.650929 -0.406456 0.053970 0.000000 0.000000 1.000000 255 255 255
0.129667 -0.406456 0.053970 -0.000000 0.000000 1.000000 255 255 255
-0.130532 0.399811 0.053970 -0.000000 0.000000 1.000000 255 255 255
-0.130532 -0.406456 0.053970 -0.000000 0.000000 1.000000 255 255 255
0.910262 0.399811 0.053970 -0.000000 0.000000 1.000000 255 255 255
0.910262 -0.406456 0.053970 -0.000000 0.000000 1.000000 255 255 255
0.910262 -0.288428 0.053970 -0.000000 0.000000 1.000000 255 255 255
0.650064 -0.406456 0.053970 -0.000000 0.000000 1.000000 255 255 255
-0.944587 -0.406456 0.053970 0.000000 0.000000 1.000000 255 255 255
-0.944587 -0.288428 0.053970 0.000000 0.000000 1.000000 255 255 255
0.910262 -0.003323 0.399143 -1.000000 -0.000000 0.000000 255 255 255
0.910262 -0.003323 0.053970 -1.000000 -0.000000 0.000000 255 255 255
-0.133389 0.425158 0.399143 0.000000 1.000000 -0.000000 255 0 0
-0.944587 -0.003323 0.053970 1.000000 -0.000000 0.000000 255 255 255
-0.944587 -0.288428 0.399143 1.000000 -0.000000 0.000000 255 255 255
-0.944587 -0.288428 0.053970 1.000000 -0.000000 0.000000 255 255 255
0.666878 0.425158 0.399143 0.000000 1.000000 -0.000000 255 0 0
-0.130532 0.399811 0.399143 0.000000 -1.000000 0.000000 255 255 255
-0.130532 0.399811 0.053970 0.000000 -1.000000 0.000000 255 255 255
0.933634 0.299709 0.399143 -0.000000 0.000000 1.000000 255 0 0
0.910262 0.399811 0.399143 -0.000000 0.000000 1.000000 255 0 0
0.910262 0.281783 0.399143 -0.000000 0.000000 1.000000 255 0 0
-0.133389 0.425158 0.399143 0.000000 -0.000000 1.000000 255 0 0
-0.650929 0.399811 0.399143 0.000000 -0.000000 1.000000 255 0 0
-0.130532 0.399811 0.399143 0.000000 -0.000000 1.000000 255 0 0
0.666878 -0.431804 0.399143 -0.000000 0.000000 1.000000 255 0 0
0.910262 -0.406456 0.399143 -0.000000 0.000000 1.000000 255 0 0
0.650064 -0.406456 0.399143 -0.000000 0.000000 1.000000 255 0 0
-0.666900 -0.431804 0.399143 -0.000000 0.000000 1.000000 255 0 0
-0.944587 -0.406456 0.399143 -0.000000 0.000000 1.000000 255 0 0
-0.967958 -0.431804 0.399143 -0.000000 0.000000 1.000000 255 0 0
0.133367 -0.431804 0.399143 -0.000000 0.000000 1.000000 255 0 0
0.129667 -0.406456 0.399143 -0.000000 0.000000 1.000000 255 0 0
0.933634 -0.003323 0.399143 0.000000 -0.000000 1.000000 255 0 0
0.910262 -0.288428 0.399143 0.000000 -0.000000 1.000000 255 0 0
0.933634 -0.306354 0.399143 0.000000 -0.000000 1.000000 255 0 0
-0.133389 -0.431804 0.399143 -0.000000 0.000000 1.000000 255 0 0
-0.130532 -0.406456 0.399143 -0.000000 0.000000 1.000000 255 0 0
0.133367 0.425158 0.399143 0.000000 0.000000 1.000000 255 0 0
0.650064 0.399811 0.399143 0.000000 0.000000 1.000000 255 0 0
0.666878 0.425158 0.399143 0.000000 0.000000 1.000000 255 0 0
0.910262 -0.003323 0.399143 -0.000000 0.000000 1.000000 255 0 0
-0.967958 -0.003323 0.399143 0.000000 0.000000 1.000000 255 0 0
-0.944587 -0.288428 0.399143 0.000000 0.000000 1.000000 255 0 0
-0.944587 -0.003323 0.399143 0.000000 0.000000 1.000000 255 0 0
-0.650929 -0.406456 0.399143 -0.000000 0.000000 1.000000 255 0 0
-0.944587 0.281783 0.399143 0.000000 0.000000 1.000000 255 0 0
-0.967958 0.299709 0.399143 0.000000 0.000000 1.000000 255 0 0
0.129667 0.399811 0.399143 0.000000 0.000000 1.000000 255 0 0
-0.666900 0.425158 0.399143 0.000000 -0.000000 1.000000 255 0 0
-0.944587 0.399811 0.399143 0.000000 -0.000000 1.000000 255 0 0
0.933634 0.425158 0.399143 0.000000 0.000000 1.000000 255 0 0
-0.967958 -0.306354 0.399143 0.000000 0.000000 1.000000 255 0 0
-0.967958 0.425158 0.399143 0.000000 0.000000 1.000000 255 0 0
0.933634 -0.431804 0.399143 0.000000 -0.000000 1.000000 255 0 0
-0.967958 -0.003323 0.399143 -1.000000 -0.000000 0.000000 255 0 0
0.910262 0.281783 0.053970 -1.000000 -0.000000 0.000000 255 255 255
0.910262 0.399811 0.399143 -1.000000 -0.000000 0.000000 255 255 255
0.910262 0.399811 0.053970 -1.000000 -0.000000 0.000000 255 255 255
-0.967958 0.299709 0.399143 -1.000000 -0.000000 0.000000 255 0 0
0.933634 -0.306354 0.399143 1.000000 -0.000000 0.000000 255 0 0
-0.650929 0.399811 0.053970 0.000000 -1.000000 0.000000 255 255 255
-0.944587 0.399811 0.399143 0.000000 -1.000000 0.000000 255 255 255
-0.944587 0.399811 0.053970 0.000000 -1.000000 0.000000 255 255 255
0.933634 -0.003323 0.399143 1.000000 -0.000000 0.000000 255 0 0
-0.944587 0.399811 0.053970 1.000000 -0.000000 0.000000 255 255 255
-0.944587 0.281783 0.399143 1.000000 -0.000000 0.000000 255 255 255
-0.944587 0.281783 0.053970 1.000000 -0.000000 0.000000 255 255 255
-0.130532 -0.406456 0.399143 0.000000 1.000000 -0.000000 255 255 255
-0.130532 -0.406456 0.053970 0.000000 1.000000 -0.000000 255 255 255
-0.944587 -0.003323 0.399143 1.000000 -0.000000 0.000000 255 255 255
0.933634 0.425158 0.399143 0.000000 1.000000 -0.000000 255 0 0
0.129667 -0.406456 0.399143 0.000000 1.000000 -0.000000 255 255 255
0.129667 -0.406456 0.053970 0.000000 1.000000 -0.000000 255 255 255
0.910262 0.281783 0.399143 -1.000000 -0.000000 0.000000 255 255 255
0.910262 0.399811 0.053970 0.000000 -1.000000 0.000000 255 255 255
0.650064 0.399811 0.399143 0.000000 -1.000000 0.000000 255 255 255
0.650064 -0.406456 0.399143 0.000000 1.000000 -0.000000 255 255 255
0.650064 -0.406456 0.053970 0.000000 1.000000 -0.000000 255 255 255
-0.650929 0.399811 0.399143 0.000000 -1.000000 0.000000 255 255 255
0.910262 -0.406456 0.399143 0.000000 1.000000 -0.000000 255 255 255
0.910262 -0.406456 0.053970 0.000000 1.000000 -0.000000 255 255 255
0.933634 -0.431804 0.399143 1.000000 -0.000000 0.000000 255 0 0
-0.944587 -0.406456 0.399143 1.000000 -0.000000 0.000000 255 255 255
-0.944587 -0.406456 0.053970 1.000000 -0.000000 0.000000 255 255 255
-0.967958 0.425158 0.002515 -0.000000 -0.000000 -1.000000 255 0 0
0.933634 -0.431804 0.399143 0.000000 -1.000000 0.000000 255 0 0
-0.944587 -0.406456 0.399143 0.000000 1.000000 0.000000 255 255 255
-0.967958 -0.431804 0.002515 0.000000 0.000000 -1.000000 255 0 0
-0.967958 0.425158 0.399143 0.000000 1.000000 0.000000 255 0 0
-0.967958 -0.431804 0.399143 -1.000000 -0.000000 -0.000000 255 0 0
0.933634 0.425158 0.399143 1.000000 -0.000000 0.000000 255 0 0
0.910262 -0.406456 0.399143 -1.000000 -0.000000 -0.000000 255 255 255
0.666878 -0.431804 0.002515 0.000000 0.000000 -1.000000 255 0 0
-0.133389 -0.431804 0.002515 0.000000 0.000000 -1.000000 255 0 0
0.666878 0.425158 0.002515 -0.000000 -0.000000 -1.000000 255 0 0
-0.133389 -0.306354 -0.197485 0.000000 1.000000 0.000000 255 0 0
-0.133389 0.425158 0.002515 -0.000000 -0.000000 -1.000000 255 0 0
0.133367 0.299709 -0.197485 0.000000 -1.000000 0.000000 255 0 0
0.666878 -0.306354 -0.197485 0.000000 1.000000 0.000000 255 0 0
-0.666900 0.299709 -0.197485 0.000000 -1.000000 0.000000 255 0 0
0.129667 0.399811 0.053970 -0.000000 0.000000 1.000000 255 255 255
-0.944587 0.399811 0.399143 1.000000 -0.000000 0.000000 255 255 255
0.910262 0.399811 0.399143 0.000000 -1.000000 0.000000 255 255 255
3 0 1 2
3 3 4 5
3 6 7 8
3 9 10 1
3 11 12 13
3 14 15 16
3 17 18 19
3 20 21 22
3 23 24 15
3 1 25 26
3 27 28 29
3 30 13 31
3 32 33 34
3 35 36 7
3 26 37 38
3 39 40 41
3 42 43 44
3 16 45 46
3 11 47 48
3 46 49 50
3 51 52 53
3 53 54 55
3 41 56 57
3 58 59 39
3 60 44 58
3 61 29 62
3 2 26 63
3 48 8 7
3 64 65 66
3 38 67 52
3 62 23 14
3 63 38 51
3 52 68 54
3 5 22 21
3 69 3 5
3 21 69 5
3 70 71 72
3 72 73 74
3 72 74 70
3 75 73 72
3 76 77 75
3 78 79 76
3 80 81 78
3 22 82 80
3 83 72 71
3 84 78 76
3 85 86 87
3 73 88 74
3 89 90 91
3 81 92 79
3 93 94 95
3 96 97 98
3 99 100 101
3 98 102 96
3 103 104 105
3 105 106 107
3 105 107 103
3 108 109 110
3 110 111 112
3 110 112 108
3 91 113 114
3 115 116 117
3 118 119 120
3 121 122 123
3 124 125 118
3 126 127 128
3 129 130 131
3 132 133 134
3 135 136 137
3 138 139 140
3 134 141 142
3 143 144 145
3 146 147 138
3 148 149 150
3 150 151 152
3 150 152 148
3 153 154 155
3 156 157 158
3 159 160 154
3 161 162 163
3 157 164 158
3 165 166 167
3 168 160 169
3 153 159 154
3 167 166 156
3 158 161 167
3 169 160 159
3 167 156 158
3 154 163 162
3 66 170 171
3 29 172 23
3 173 174 175
3 15 176 45
3 34 177 178
3 179 180 181
3 182 183 184
3 185 186 187
3 188 189 190
3 191 187 192
3 193 194 195
3 196 192 197
3 198 199 200
3 193 181 201
3 202 203 204
3 196 205 188
3 202 206 207
3 182 208 198
3 209 210 183
3 200 180 211
3 212 189 203
3 207 210 213
3 195 186 214
3 7 215 48
3 216 217 218
3 48 219 11
3 59 220 40
3 221 222 223
3 44 224 59
3 225 226 227
3 19 228 229
3 227 230 173
3 45 231 49
3 229 232 233
3 171 234 216
3 235 236 32
3 233 237 238
3 178 239 221
3 238 240 241
3 40 242 56
3 175 243 244
3 0 9 1
3 3 245 4
3 6 35 7
3 9 246 10
3 11 219 12
3 14 23 15
3 17 247 18
3 20 248 21
3 23 172 24
3 1 10 25
3 27 249 28
3 30 11 13
3 32 236 33
3 35 250 36
3 26 25 37
3 39 59 40
3 42 251 43
3 16 15 45
3 11 30 47
3 46 45 49
3 51 38 52
3 53 52 54
3 41 40 56
3 58 44 59
3 60 42 44
3 61 27 29
3 2 1 26
3 48 47 8
3 64 252 65
3 38 37 67
3 62 29 23
3 63 26 38
3 52 67 68
3 75 77 73
3 76 79 77
3 78 81 79
3 80 82 81
3 22 5 82
3 83 253 72
3 84 254 78
3 73 255 88
3 89 256 90
3 81 257 92
3 91 90 113
3 118 125 119
3 124 258 125
3 132 259 133
3 138 147 139
3 134 133 141
3 146 260 147
3 161 261 162
3 158 261 161
3 154 160 163
3 66 65 170
3 29 28 172
3 173 230 174
3 15 24 176
3 34 33 177
3 179 211 180
3 182 209 183
3 185 214 186
3 188 205 189
3 191 185 187
3 193 201 194
3 196 191 192
3 198 208 199
3 193 179 181
3 202 212 203
3 196 197 205
3 202 204 206
3 182 184 208
3 209 213 210
3 200 199 180
3 212 190 189
3 207 206 210
3 195 194 186
3 7 36 215
3 216 234 217
3 48 215 219
3 59 224 220
3 221 239 222
3 44 43 224
3 225 262 226
3 19 18 228
3 227 226 230
3 45 176 231
3 229 228 232
3 171 170 234
3 235 263 236
3 233 232 237
3 178 177 239
3 238 237 240
3 40 220 242
3 175 174 243
