ply
format ascii 1.0
comment Created by Blender 2.79 (sub 0) - www.blender.org, source file: 'LittleRedDiesel.blend'
element vertex 374
property float x
property float y
property float z
property float nx
property float ny
property float nz
property uchar red
property uchar green
property uchar blue
element face 210
property list uchar uint vertex_indices
end_header
-0.478532 0.000000 0.309113 -0.978508 0.000000 0.206209 255 0 0
-0.456897 0.157074 0.411776 -0.978508 0.000000 0.206209 255 0 0
-0.478532 0.187726 0.309113 -0.978508 0.000000 0.206209 255 0 0
-0.103114 0.187726 0.309113 0.000000 0.999150 0.041216 255 0 0
0.404021 0.187726 0.309113 0.000000 0.999150 0.041216 255 0 0
0.452430 0.193974 0.157659 0.000000 0.999150 0.041216 255 0 0
0.411271 0.151516 0.001272 0.000000 0.000000 -1.000000 255 0 0
0.495038 0.000000 0.001272 0.000000 0.000000 -1.000000 255 0 0
0.411271 0.000000 0.001272 0.000000 0.000000 -1.000000 255 0 0
0.452430 0.000000 0.155275 0.218608 -0.011991 0.975739 255 0 0
0.495038 0.193974 0.148113 0.218608 -0.011991 0.975739 255 0 0
0.452430 0.193974 0.157659 0.218608 -0.011991 0.975739 255 0 0
-0.495038 -0.193974 0.148113 -0.775375 -0.631501 -0.000000 255 0 0
-0.478532 -0.214241 0.001272 -0.775375 -0.631501 -0.000000 255 0 0
-0.478532 -0.214241 0.148113 -0.775375 -0.631501 -0.000000 255 0 0
0.411271 0.214241 0.148113 0.000000 1.000000 0.000000 255 0 0
0.029926 0.214241 0.001272 0.000000 1.000000 0.000000 255 0 0
-0.097188 0.214241 0.001272 0.000000 1.000000 0.000000 255 0 0
-0.478532 0.193974 0.157659 -0.000000 0.426129 0.904662 255 0 0
0.411271 0.214241 0.148113 -0.000000 0.426129 0.904662 255 0 0
-0.478532 0.214241 0.148113 -0.000000 0.426129 0.904662 255 0 0
-0.478532 0.151516 0.001272 -0.000000 0.000000 -1.000000 255 0 0
-0.351418 0.214241 0.001272 -0.000000 0.000000 -1.000000 255 0 0
-0.351418 0.151516 0.001272 -0.000000 0.000000 -1.000000 255 0 0
-0.144181 0.157074 0.411776 0.928469 0.000000 0.371409 255 0 0
-0.140280 0.016378 0.402023 0.928469 0.000000 0.371409 255 0 0
-0.140280 0.143608 0.402023 0.928469 0.000000 0.371409 255 0 0
0.495038 0.000000 0.148113 1.000000 0.000000 0.000000 255 0 0
0.495038 0.193974 0.001272 1.000000 0.000000 0.000000 255 0 0
0.495038 0.193974 0.148113 1.000000 0.000000 0.000000 255 0 0
-0.144181 0.157074 0.411776 0.000000 -0.000000 1.000000 255 0 0
-0.300539 0.157074 0.411776 0.000000 -0.000000 1.000000 255 0 0
-0.144181 0.000000 0.411776 0.000000 -0.000000 1.000000 255 0 0
0.452430 0.193974 0.157659 0.162208 0.670456 0.724001 255 0 0
0.495038 0.193974 0.148113 0.162208 0.670456 0.724001 255 0 0
0.411271 0.214241 0.148113 0.162208 0.670456 0.724001 255 0 0
0.495038 0.193974 0.001272 0.235152 0.971959 0.000000 255 0 0
0.411271 0.214241 0.148113 0.235152 0.971959 0.000000 255 0 0
0.495038 0.193974 0.148113 0.235152 0.971959 0.000000 255 0 0
0.411271 0.214241 0.001272 0.000000 0.000000 -1.000000 255 0 0
0.495038 0.193974 0.001272 0.000000 0.000000 -1.000000 255 0 0
0.404021 0.187726 0.309113 0.000000 -0.000000 1.000000 255 0 0
-0.103114 0.000000 0.309113 0.000000 -0.000000 1.000000 255 0 0
0.404021 0.000000 0.309113 0.000000 -0.000000 1.000000 255 0 0
-0.478532 0.193974 0.157659 -0.000000 0.999150 0.041216 255 0 0
0.452430 0.000000 0.155275 0.953889 -0.000000 0.300160 255 0 0
0.404021 0.187726 0.309113 0.953889 -0.000000 0.300160 255 0 0
0.404021 0.000000 0.309113 0.953889 -0.000000 0.300160 255 0 0
-0.495038 0.000000 0.001272 -1.000000 -0.000000 -0.000000 255 0 0
-0.495038 -0.193974 0.148113 -1.000000 -0.000000 -0.000000 255 0 0
-0.495038 0.000000 0.148113 -1.000000 -0.000000 -0.000000 255 0 0
-0.290823 0.187726 0.309113 0.000000 0.999150 0.041216 255 0 0
-0.290823 0.187726 0.309113 0.000000 0.958203 0.286090 255 0 0
-0.124424 0.184661 0.319379 0.000000 0.958203 0.286090 255 0 0
-0.103114 0.187726 0.309113 0.000000 0.958203 0.286090 255 0 0
-0.456897 -0.157074 0.411776 -0.978508 0.000000 0.206209 255 0 0
-0.456897 0.000000 0.411776 -0.978508 0.000000 0.206209 255 0 0
-0.103114 -0.187727 0.309113 0.000000 -0.999150 0.041216 255 0 0
0.452430 -0.193974 0.157659 0.000000 -0.999150 0.041216 255 0 0
0.404021 -0.187727 0.309113 0.000000 -0.999150 0.041216 255 0 0
0.411271 -0.151516 0.001272 0.000000 0.000000 -1.000000 255 0 0
0.495038 -0.193974 0.148113 0.218608 0.011991 0.975739 255 0 0
0.452430 0.000000 0.155275 0.218608 0.011991 0.975739 255 0 0
0.452430 -0.193974 0.157659 0.218608 0.011991 0.975739 255 0 0
0.284156 -0.214241 0.001272 0.000000 -1.000000 -0.000000 255 0 0
0.411271 -0.214241 0.148113 0.000000 -1.000000 -0.000000 255 0 0
0.029926 -0.214241 0.001272 0.000000 -1.000000 -0.000000 255 0 0
-0.478532 -0.193974 0.157659 0.000000 -0.426130 0.904662 255 0 0
0.411271 -0.214241 0.148113 0.000000 -0.426130 0.904662 255 0 0
0.452430 -0.193974 0.157659 0.000000 -0.426130 0.904662 255 0 0
-0.351418 -0.214241 0.001272 -0.000000 -0.000000 -1.000000 255 0 0
-0.478532 -0.151516 0.001272 -0.000000 -0.000000 -1.000000 255 0 0
-0.351418 -0.151516 0.001272 -0.000000 -0.000000 -1.000000 255 0 0
-0.144181 -0.157074 0.411776 0.928470 -0.000002 0.371407 255 0 0
-0.107015 -0.168437 0.318866 0.928470 -0.000002 0.371407 255 0 0
-0.140280 -0.143608 0.402023 0.928470 -0.000002 0.371407 255 0 0
0.495038 -0.193974 0.001272 1.000000 -0.000000 0.000000 255 0 0
0.495038 -0.193974 0.148113 1.000000 -0.000000 0.000000 255 0 0
-0.456897 0.000000 0.411776 0.000000 0.000000 1.000000 255 0 0
-0.300539 -0.157074 0.411776 0.000000 0.000000 1.000000 255 0 0
0.452430 -0.193974 0.157659 0.162208 -0.670456 0.724001 255 0 0
0.411271 -0.214241 0.148113 0.162208 -0.670456 0.724001 255 0 0
0.495038 -0.193974 0.148113 0.162208 -0.670456 0.724001 255 0 0
0.411271 -0.214241 0.148113 0.235152 -0.971959 0.000000 255 0 0
0.495038 -0.193974 0.001272 0.235152 -0.971959 0.000000 255 0 0
0.495038 -0.193974 0.148113 0.235152 -0.971959 0.000000 255 0 0
0.411271 -0.214241 0.001272 -0.000000 -0.000000 -1.000000 255 0 0
0.495038 -0.193974 0.001272 -0.000000 -0.000000 -1.000000 255 0 0
0.404021 -0.187727 0.309113 0.000000 0.000000 1.000000 255 0 0
-0.478532 -0.193974 0.157659 0.000000 -0.999150 0.041216 255 0 0
0.452430 0.000000 0.155275 0.952567 0.003740 0.304307 255 0 0
0.404021 -0.187727 0.309113 0.952567 0.003740 0.304307 255 0 0
0.452430 -0.193974 0.157659 0.952567 0.003740 0.304307 255 0 0
-0.495038 0.193974 0.001272 -1.000000 -0.000000 -0.000000 255 0 0
-0.495038 0.193974 0.148113 -1.000000 -0.000000 -0.000000 255 0 0
-0.290823 -0.187727 0.309113 0.000000 -0.999150 0.041216 255 0 0
-0.144181 -0.157074 0.411776 -0.000001 -0.958203 0.286090 255 0 0
-0.124424 -0.184661 0.319379 -0.000001 -0.958203 0.286090 255 0 0
-0.103114 -0.187727 0.309113 -0.000001 -0.958203 0.286090 255 0 0
-0.478532 0.000000 0.155192 -0.394179 0.000000 0.919034 255 0 0
-0.495038 0.193974 0.148113 -0.394179 0.000000 0.919034 255 0 0
-0.495038 0.000000 0.148113 -0.394179 0.000000 0.919034 255 0 0
-0.478532 -0.193974 0.157659 -0.463593 -0.377571 0.801574 255 0 0
-0.495038 -0.193974 0.148113 -0.463593 -0.377571 0.801574 255 0 0
-0.478532 -0.214241 0.148113 -0.463593 -0.377571 0.801574 255 0 0
-0.478532 0.000000 0.155192 -1.000000 -0.000000 -0.000000 255 0 0
-0.478532 -0.187727 0.309113 -1.000000 -0.000000 -0.000000 255 0 0
-0.478532 0.000000 0.309113 -1.000000 -0.000000 -0.000000 255 0 0
-0.478532 0.187726 0.309113 -1.000000 0.000000 0.000000 255 0 0
-0.495038 0.000000 0.001272 -0.000000 -0.000000 -1.000000 255 0 0
-0.478532 0.000000 0.001272 -0.000000 -0.000000 -1.000000 255 0 0
-0.478532 0.000000 0.155192 -0.500621 0.011008 0.865597 255 0 0
-0.495038 -0.193974 0.148113 -0.500621 0.011008 0.865597 255 0 0
-0.478532 -0.193974 0.157659 -0.500621 0.011008 0.865597 255 0 0
-0.495038 0.193974 0.001272 0.000000 0.000000 -1.000000 255 0 0
-0.478532 0.193974 0.157659 -0.463593 0.377571 0.801575 255 0 0
-0.478532 0.214241 0.148113 -0.463593 0.377571 0.801575 255 0 0
-0.495038 0.193974 0.148113 -0.463593 0.377571 0.801575 255 0 0
-0.478532 0.214241 0.001272 -0.775375 0.631500 0.000000 255 0 0
-0.495038 0.193974 0.148113 -0.775375 0.631500 0.000000 255 0 0
-0.478532 0.214241 0.148113 -0.775375 0.631500 0.000000 255 0 0
-0.478532 0.214241 0.001272 -0.000000 0.000000 -1.000000 255 0 0
-0.478532 -0.214241 0.001272 0.000000 -0.000000 -1.000000 255 0 0
-0.495038 -0.193974 0.001272 0.000000 -0.000000 -1.000000 255 0 0
-0.107015 0.016378 0.318866 0.928470 -0.000000 0.371406 255 255 255
-0.140280 0.143608 0.402023 0.928470 -0.000000 0.371406 255 255 255
-0.140280 0.016378 0.402023 0.928470 -0.000000 0.371406 255 255 255
-0.103114 0.000000 0.309113 0.928470 -0.000002 0.371407 255 0 0
-0.140280 0.016378 0.402023 0.928470 -0.000002 0.371407 255 0 0
-0.144181 0.000000 0.411776 0.928470 -0.000002 0.371407 255 0 0
-0.144181 0.157074 0.411776 0.928470 -0.000002 0.371407 255 0 0
-0.107015 0.168437 0.318866 0.928470 -0.000002 0.371407 255 0 0
-0.103114 0.187726 0.309113 0.928470 -0.000002 0.371407 255 0 0
-0.103114 0.000000 0.309113 0.928469 -0.000000 0.371409 255 0 0
-0.107015 0.168437 0.318866 0.928469 -0.000000 0.371409 255 0 0
-0.107015 0.016378 0.318866 0.928469 -0.000000 0.371409 255 0 0
-0.107015 -0.016378 0.318866 0.928470 0.000000 0.371407 255 255 255
-0.140280 -0.143608 0.402023 0.928470 0.000000 0.371407 255 255 255
-0.107015 -0.168437 0.318866 0.928470 0.000000 0.371407 255 255 255
-0.107015 -0.168437 0.318866 0.928469 0.000000 0.371409 255 0 0
-0.103114 -0.187727 0.309113 0.928469 0.000000 0.371409 255 0 0
-0.107015 -0.016378 0.318866 0.928470 -0.000002 0.371407 255 0 0
-0.144181 -0.157074 0.411776 0.928469 0.000000 0.371409 255 0 0
-0.140280 -0.016378 0.402023 0.928469 0.000000 0.371409 255 0 0
-0.144181 0.000000 0.411776 0.928469 0.000000 0.371409 255 0 0
-0.456897 -0.157074 0.411776 -0.000001 -0.958203 0.286091 255 0 0
-0.459166 -0.184661 0.319379 -0.000001 -0.958203 0.286091 255 0 0
-0.441858 -0.160140 0.401510 -0.000001 -0.958203 0.286091 255 0 0
-0.459166 0.184661 0.319379 0.000000 0.958203 0.286090 255 0 0
-0.308998 0.184661 0.319379 0.000000 0.958203 0.286090 255 0 0
-0.157278 0.160140 0.401510 0.000000 0.958202 0.286091 255 255 255
-0.274591 0.184661 0.319379 0.000000 0.958202 0.286091 255 255 255
-0.282364 0.160140 0.401510 0.000000 0.958202 0.286091 255 255 255
-0.144181 0.157074 0.411776 -0.000001 0.958203 0.286091 255 0 0
-0.124424 0.184661 0.319379 -0.000001 0.958203 0.286091 255 0 0
-0.157278 0.160140 0.401510 -0.000001 0.958203 0.286091 255 0 0
-0.144181 0.157074 0.411776 0.000000 0.958203 0.286090 255 0 0
-0.282364 0.160140 0.401510 0.000000 0.958203 0.286090 255 0 0
-0.300539 0.157074 0.411776 0.000000 0.958203 0.286090 255 0 0
-0.290823 0.187726 0.309113 -0.000001 0.958202 0.286091 255 0 0
-0.282364 0.160140 0.401510 -0.000001 0.958202 0.286091 255 0 0
-0.274591 0.184661 0.319379 -0.000001 0.958202 0.286091 255 0 0
-0.441858 0.160140 0.401510 -0.000000 0.958202 0.286091 255 255 255
-0.308998 0.184661 0.319379 -0.000000 0.958202 0.286091 255 255 255
-0.459166 0.184661 0.319379 -0.000000 0.958202 0.286091 255 255 255
-0.456897 0.157074 0.411776 -0.000001 0.958202 0.286091 255 0 0
-0.459166 0.184661 0.319379 -0.000001 0.958202 0.286091 255 0 0
-0.478532 0.187726 0.309113 -0.000001 0.958202 0.286091 255 0 0
-0.456897 0.157074 0.411776 -0.000000 0.958203 0.286090 255 0 0
-0.316771 0.160140 0.401510 -0.000000 0.958203 0.286090 255 0 0
-0.441858 0.160140 0.401510 -0.000000 0.958203 0.286090 255 0 0
-0.300539 0.157074 0.411776 -0.000001 0.958202 0.286091 255 0 0
-0.308998 0.184661 0.319379 -0.000001 0.958202 0.286091 255 0 0
-0.316771 0.160140 0.401510 -0.000001 0.958202 0.286091 255 0 0
-0.274591 -0.184661 0.319379 0.000000 -0.958203 0.286090 255 255 255
-0.157278 -0.160140 0.401510 0.000000 -0.958203 0.286090 255 255 255
-0.282364 -0.160140 0.401510 0.000000 -0.958203 0.286090 255 255 255
-0.290823 -0.187727 0.309113 -0.000001 -0.958203 0.286091 255 0 0
-0.282364 -0.160140 0.401510 -0.000001 -0.958203 0.286091 255 0 0
-0.300539 -0.157074 0.411776 -0.000001 -0.958203 0.286091 255 0 0
-0.290823 -0.187727 0.309113 0.000000 -0.958202 0.286092 255 0 0
-0.124424 -0.184661 0.319379 0.000000 -0.958202 0.286092 255 0 0
-0.274591 -0.184661 0.319379 0.000000 -0.958202 0.286092 255 0 0
-0.144181 -0.157074 0.411776 0.000000 -0.958202 0.286092 255 0 0
-0.282364 -0.160140 0.401510 0.000000 -0.958202 0.286092 255 0 0
-0.157278 -0.160140 0.401510 0.000000 -0.958202 0.286092 255 0 0
-0.441858 -0.160140 0.401510 0.000000 -0.958203 0.286090 255 255 255
-0.308998 -0.184661 0.319379 0.000000 -0.958203 0.286090 255 255 255
-0.316771 -0.160140 0.401510 0.000000 -0.958203 0.286090 255 255 255
-0.300539 -0.157074 0.411776 -0.000001 -0.958202 0.286091 255 0 0
-0.308998 -0.184661 0.319379 -0.000001 -0.958202 0.286091 255 0 0
-0.290823 -0.187727 0.309113 -0.000001 -0.958202 0.286091 255 0 0
-0.456897 -0.157074 0.411776 0.000000 -0.958202 0.286092 255 0 0
-0.316771 -0.160140 0.401510 0.000000 -0.958202 0.286092 255 0 0
-0.300539 -0.157074 0.411776 0.000000 -0.958202 0.286092 255 0 0
-0.459166 -0.184661 0.319379 0.000000 -0.958202 0.286092 255 0 0
-0.478532 -0.187727 0.309113 0.000000 -0.958202 0.286092 255 0 0
0.284156 0.151516 0.001272 0.000000 0.000000 -1.000000 255 0 0
0.157041 -0.151516 0.001272 -0.000000 0.000000 -1.000000 255 0 0
0.284156 -0.151516 0.001272 -0.000000 0.000000 -1.000000 255 0 0
0.029926 -0.151516 0.001272 -0.000000 0.000000 -1.000000 255 0 0
0.157041 0.151516 0.001272 -0.000000 0.000000 -1.000000 255 0 0
-0.097188 -0.151516 0.001272 -0.000000 0.000000 -1.000000 255 0 0
0.029926 0.151516 0.001272 -0.000000 0.000000 -1.000000 255 0 0
-0.224303 -0.151516 0.001272 -0.000000 0.000000 -1.000000 255 0 0
-0.097188 0.151516 0.001272 -0.000000 0.000000 -1.000000 255 0 0
-0.224303 0.151516 0.001272 -0.000000 0.000000 -1.000000 255 0 0
0.029926 -0.214241 0.001272 -0.000000 -0.000000 -1.000000 255 0 0
-0.351418 -0.214241 0.001272 -1.000000 0.000000 0.000000 255 0 0
-0.351418 -0.151516 0.001272 -1.000000 0.000000 0.000000 255 0 0
-0.351418 -0.151516 -0.098728 -1.000000 0.000000 0.000000 255 0 0
-0.097188 -0.151516 0.001272 -0.000000 1.000000 0.000000 255 0 0
-0.224303 -0.151516 -0.098728 -0.000000 1.000000 0.000000 255 0 0
-0.224303 -0.151516 0.001272 -0.000000 1.000000 0.000000 255 0 0
0.029926 0.214241 0.001272 -0.000000 0.000000 -1.000000 255 0 0
-0.097188 -0.151516 0.001272 1.000000 0.000000 -0.000000 255 0 0
-0.097188 -0.214241 0.001272 1.000000 0.000000 -0.000000 255 0 0
-0.097188 -0.151516 -0.098728 1.000000 0.000000 -0.000000 255 0 0
0.029926 -0.214241 0.001272 0.000000 -0.847142 -0.531367 255 0 0
0.157041 -0.151516 -0.098728 0.000000 -0.847142 -0.531367 255 0 0
0.284156 -0.214241 0.001272 0.000000 -0.847142 -0.531367 255 0 0
0.284156 0.214241 0.001272 0.000000 0.847142 -0.531367 255 0 0
0.157041 0.151516 -0.098728 0.000000 0.847142 -0.531367 255 0 0
0.029926 0.214241 0.001272 0.000000 0.847142 -0.531367 255 0 0
-0.351418 -0.214241 0.001272 0.000000 -0.847142 -0.531367 255 0 0
-0.224303 -0.151516 -0.098728 0.000000 -0.847142 -0.531367 255 0 0
-0.097188 -0.214241 0.001272 0.000000 -0.847142 -0.531367 255 0 0
-0.351418 -0.151516 -0.098728 -0.000000 1.000000 0.000000 255 0 0
-0.351418 -0.151516 0.001272 -0.000000 1.000000 0.000000 255 0 0
0.284156 0.214241 0.001272 1.000000 0.000000 0.000000 255 0 0
0.284156 0.151516 0.001272 1.000000 0.000000 0.000000 255 0 0
0.284156 0.151516 -0.098728 1.000000 0.000000 0.000000 255 0 0
0.157041 0.151516 0.001272 -0.000000 -1.000000 -0.000000 255 0 0
0.284156 0.151516 -0.098728 -0.000000 -1.000000 -0.000000 255 0 0
0.284156 0.151516 0.001272 -0.000000 -1.000000 -0.000000 255 0 0
0.029926 0.151516 0.001272 -1.000000 0.000000 0.000000 255 0 0
0.029926 0.214241 0.001272 -1.000000 0.000000 0.000000 255 0 0
0.029926 0.151516 -0.098728 -1.000000 0.000000 0.000000 255 0 0
0.029926 0.151516 0.001272 -0.000000 -1.000000 -0.000000 255 0 0
0.157041 0.151516 -0.098728 -0.000000 -1.000000 -0.000000 255 0 0
-0.097188 0.214241 0.001272 1.000000 0.000000 0.000000 255 0 0
-0.097188 0.151516 0.001272 1.000000 0.000000 0.000000 255 0 0
-0.097188 0.151516 -0.098728 1.000000 0.000000 0.000000 255 0 0
-0.351418 0.151516 0.001272 -1.000000 0.000000 0.000000 255 0 0
-0.351418 0.214241 0.001272 -1.000000 0.000000 0.000000 255 0 0
-0.351418 0.151516 -0.098728 -1.000000 0.000000 0.000000 255 0 0
0.284156 -0.151516 0.001272 -0.000000 1.000000 0.000000 255 0 0
0.157041 -0.151516 -0.098728 -0.000000 1.000000 0.000000 255 0 0
0.157041 -0.151516 0.001272 -0.000000 1.000000 0.000000 255 0 0
0.284156 -0.151516 0.001272 1.000000 0.000000 -0.000000 255 0 0
0.284156 -0.214241 0.001272 1.000000 0.000000 -0.000000 255 0 0
0.284156 -0.151516 -0.098728 1.000000 0.000000 -0.000000 255 0 0
-0.224303 0.151516 0.001272 -0.000000 -1.000000 -0.000000 255 0 0
-0.097188 0.151516 -0.098728 -0.000000 -1.000000 -0.000000 255 0 0
-0.097188 0.151516 0.001272 -0.000000 -1.000000 -0.000000 255 0 0
0.029926 -0.151516 -0.098728 -0.000000 1.000000 0.000000 255 0 0
0.029926 -0.151516 0.001272 -0.000000 1.000000 0.000000 255 0 0
0.029926 -0.214241 0.001272 -1.000000 0.000000 0.000000 255 0 0
0.029926 -0.151516 0.001272 -1.000000 0.000000 0.000000 255 0 0
0.029926 -0.151516 -0.098728 -1.000000 0.000000 0.000000 255 0 0
-0.351418 0.151516 0.001272 -0.000000 -1.000000 -0.000000 255 0 0
-0.224303 0.151516 -0.098728 -0.000000 -1.000000 -0.000000 255 0 0
-0.097188 0.214241 0.001272 0.000000 0.847142 -0.531367 255 0 0
-0.224303 0.151516 -0.098728 0.000000 0.847142 -0.531367 255 0 0
-0.351418 0.214241 0.001272 0.000000 0.847142 -0.531367 255 0 0
0.452430 0.000000 0.155275 0.165774 0.000000 0.986164 255 0 0
0.495038 0.000000 0.148113 0.165774 0.000000 0.986164 255 0 0
0.495038 0.193974 0.148113 0.165774 0.000000 0.986164 255 0 0
-0.495038 -0.193974 0.001272 -0.775375 -0.631501 0.000000 255 0 0
-0.351418 0.214241 0.001272 -0.000000 1.000000 0.000000 255 0 0
-0.478532 0.214241 0.001272 -0.000000 1.000000 0.000000 255 0 0
-0.478532 0.214241 0.148113 -0.000000 1.000000 0.000000 255 0 0
0.284156 0.214241 0.001272 -0.000000 1.000000 0.000000 255 0 0
0.411271 0.214241 0.001272 0.000000 1.000000 0.000000 255 0 0
0.452430 0.193974 0.157659 0.000000 0.426129 0.904662 255 0 0
0.495038 0.000000 0.001272 1.000000 0.000000 -0.000000 255 0 0
-0.456897 0.157074 0.411776 0.000000 0.000000 1.000000 255 0 0
0.411271 0.214241 0.001272 0.235152 0.971959 0.000000 255 0 0
-0.103114 0.187726 0.309113 0.000000 0.000000 1.000000 255 0 0
0.452430 0.000000 0.155275 0.952567 -0.003740 0.304307 255 0 0
0.452430 0.193974 0.157659 0.952567 -0.003740 0.304307 255 0 0
0.404021 0.187726 0.309113 0.952567 -0.003740 0.304307 255 0 0
-0.495038 -0.193974 0.001272 -1.000000 0.000000 0.000000 255 0 0
-0.478532 0.187726 0.309113 0.000000 0.999150 0.041216 255 0 0
-0.274591 0.184661 0.319379 0.000000 0.958203 0.286090 255 0 0
-0.478532 -0.187727 0.309113 -0.978508 0.000000 0.206209 255 0 0
0.495038 -0.193974 0.148113 0.165774 0.000000 0.986164 255 0 0
-0.478532 -0.214241 0.148113 0.000000 -1.000000 0.000000 255 0 0
-0.478532 -0.214241 0.001272 0.000000 -1.000000 0.000000 255 0 0
-0.351418 -0.214241 0.001272 0.000000 -1.000000 0.000000 255 0 0
-0.097188 -0.214241 0.001272 -0.000000 -1.000000 0.000000 255 0 0
0.411271 -0.214241 0.001272 0.000000 -1.000000 0.000000 255 0 0
-0.478532 -0.214241 0.148113 0.000000 -0.426130 0.904662 255 0 0
-0.144181 -0.157074 0.411776 0.928470 0.000002 0.371407 255 0 0
-0.103114 -0.187727 0.309113 0.928470 0.000002 0.371407 255 0 0
-0.107015 -0.168437 0.318866 0.928470 0.000002 0.371407 255 0 0
-0.144181 -0.157074 0.411776 -0.000000 0.000000 1.000000 255 0 0
-0.456897 -0.157074 0.411776 0.000000 -0.000000 1.000000 255 0 0
0.411271 -0.214241 0.001272 0.235152 -0.971959 0.000000 255 0 0
-0.103114 -0.187727 0.309113 0.000000 -0.000000 1.000000 255 0 0
0.404021 -0.187727 0.309113 0.953889 -0.000000 0.300160 255 0 0
-0.478532 -0.187727 0.309113 0.000000 -0.999150 0.041216 255 0 0
-0.144181 -0.157074 0.411776 0.000001 -0.958202 0.286091 255 0 0
-0.157278 -0.160140 0.401510 0.000001 -0.958202 0.286091 255 0 0
-0.124424 -0.184661 0.319379 0.000001 -0.958202 0.286091 255 0 0
-0.478532 0.000000 0.155192 -0.500621 -0.011008 0.865597 255 0 0
-0.478532 0.193974 0.157659 -0.500621 -0.011008 0.865597 255 0 0
-0.495038 0.193974 0.148113 -0.500621 -0.011008 0.865597 255 0 0
-0.478532 -0.193974 0.157659 -1.000000 0.000000 -0.000000 255 0 0
-0.478532 0.193974 0.157659 -1.000000 0.000000 0.000000 255 0 0
-0.495038 -0.193974 0.148113 -0.394179 0.000000 0.919034 255 0 0
-0.495038 0.193974 0.001272 -0.775375 0.631500 0.000000 255 0 0
-0.107015 0.016378 0.318866 0.928470 0.000000 0.371407 255 255 255
-0.107015 0.168437 0.318866 0.928470 0.000000 0.371407 255 255 255
-0.140280 0.143608 0.402023 0.928470 0.000000 0.371407 255 255 255
-0.103114 0.000000 0.309113 0.928470 0.000002 0.371406 255 0 0
-0.107015 0.016378 0.318866 0.928470 0.000002 0.371406 255 0 0
-0.140280 0.016378 0.402023 0.928470 0.000002 0.371406 255 0 0
-0.144181 0.157074 0.411776 0.928470 0.000002 0.371407 255 0 0
-0.140280 0.143608 0.402023 0.928470 0.000002 0.371407 255 0 0
-0.107015 0.168437 0.318866 0.928470 0.000002 0.371407 255 0 0
-0.103114 0.187726 0.309113 0.928469 0.000000 0.371409 255 0 0
-0.107015 -0.016378 0.318866 0.928470 -0.000000 0.371406 255 255 255
-0.140280 -0.016378 0.402023 0.928470 -0.000000 0.371406 255 255 255
-0.140280 -0.143608 0.402023 0.928470 -0.000000 0.371406 255 255 255
-0.107015 -0.016378 0.318866 0.928469 -0.000000 0.371409 255 0 0
-0.144181 0.000000 0.411776 0.928470 0.000002 0.371406 255 0 0
-0.140280 -0.016378 0.402023 0.928470 0.000002 0.371406 255 0 0
-0.107015 -0.016378 0.318866 0.928470 0.000002 0.371406 255 0 0
-0.140280 -0.143608 0.402023 0.928469 0.000000 0.371409 255 0 0
-0.456897 -0.157074 0.411776 0.000001 -0.958203 0.286091 255 0 0
-0.478532 -0.187727 0.309113 0.000001 -0.958203 0.286091 255 0 0
-0.459166 -0.184661 0.319379 0.000001 -0.958203 0.286091 255 0 0
-0.478532 0.187726 0.309113 -0.000000 0.958203 0.286090 255 0 0
-0.124424 0.184661 0.319379 -0.000000 0.958202 0.286091 255 255 255
-0.144181 0.157074 0.411776 0.000001 0.958202 0.286091 255 0 0
-0.103114 0.187726 0.309113 0.000001 0.958202 0.286091 255 0 0
-0.124424 0.184661 0.319379 0.000001 0.958202 0.286091 255 0 0
-0.157278 0.160140 0.401510 -0.000000 0.958203 0.286090 255 0 0
-0.290823 0.187726 0.309113 0.000001 0.958202 0.286091 255 0 0
-0.300539 0.157074 0.411776 0.000001 0.958202 0.286091 255 0 0
-0.282364 0.160140 0.401510 0.000001 0.958202 0.286091 255 0 0
-0.316771 0.160140 0.401510 0.000000 0.958202 0.286091 255 255 255
-0.456897 0.157074 0.411776 0.000001 0.958202 0.286091 255 0 0
-0.441858 0.160140 0.401510 0.000001 0.958202 0.286091 255 0 0
-0.459166 0.184661 0.319379 0.000001 0.958202 0.286091 255 0 0
-0.308998 0.184661 0.319379 0.000001 0.958202 0.286091 255 0 0
-0.124424 -0.184661 0.319379 0.000000 -0.958203 0.286090 255 255 255
-0.290823 -0.187727 0.309113 0.000001 -0.958203 0.286091 255 0 0
-0.274591 -0.184661 0.319379 0.000001 -0.958203 0.286091 255 0 0
-0.282364 -0.160140 0.401510 0.000001 -0.958203 0.286091 255 0 0
-0.103114 -0.187727 0.309113 0.000000 -0.958202 0.286092 255 0 0
-0.459166 -0.184661 0.319379 0.000000 -0.958203 0.286090 255 255 255
-0.300539 -0.157074 0.411776 0.000001 -0.958203 0.286091 255 0 0
-0.316771 -0.160140 0.401510 0.000001 -0.958203 0.286091 255 0 0
-0.308998 -0.184661 0.319379 0.000001 -0.958203 0.286091 255 0 0
-0.441858 -0.160140 0.401510 0.000000 -0.958202 0.286092 255 0 0
-0.308998 -0.184661 0.319379 0.000000 -0.958202 0.286092 255 0 0
0.284156 -0.214241 0.001272 0.000000 0.000000 -1.000000 255 0 0
-0.097188 -0.214241 0.001272 0.000000 0.000000 -1.000000 255 0 0
0.284156 0.214241 0.001272 -0.000000 -0.000000 -1.000000 255 0 0
-0.097188 -0.151516 -0.098728 0.000000 1.000000 0.000000 255 0 0
-0.097188 0.214241 0.001272 -0.000000 -0.000000 -1.000000 255 0 0
0.284156 -0.151516 -0.098728 0.000000 -0.847142 -0.531367 255 0 0
0.029926 -0.151516 -0.098728 -0.000000 -0.847142 -0.531367 255 0 0
0.029926 0.151516 -0.098728 0.000000 0.847142 -0.531367 255 0 0
0.284156 0.151516 -0.098728 0.000000 0.847142 -0.531367 255 0 0
-0.097188 -0.151516 -0.098728 0.000000 -0.847142 -0.531367 255 0 0
-0.351418 -0.151516 -0.098728 -0.000000 -0.847142 -0.531367 255 0 0
0.029926 0.151516 -0.098728 0.000000 -1.000000 0.000000 255 0 0
0.284156 -0.151516 -0.098728 0.000000 1.000000 0.000000 255 0 0
-0.351418 0.151516 -0.098728 0.000000 -1.000000 0.000000 255 0 0
-0.351418 0.151516 -0.098728 0.000000 0.847142 -0.531367 255 0 0
-0.097188 0.151516 -0.098728 0.000000 0.847142 -0.531367 255 0 0
3 0 1 2
3 3 4 5
3 6 7 8
3 9 10 11
3 12 13 14
3 15 16 17
3 18 19 20
3 21 22 23
3 24 25 26
3 27 28 29
3 30 31 32
3 33 34 35
3 36 37 38
3 39 40 6
3 41 42 43
3 5 44 3
3 45 46 47
3 48 49 50
3 44 51 3
3 52 53 54
3 0 55 56
3 57 58 59
3 7 60 8
3 61 62 63
3 64 65 66
3 67 68 69
3 70 71 72
3 73 74 75
3 76 27 77
3 78 79 32
3 80 81 82
3 83 84 85
3 86 60 87
3 42 88 43
3 58 57 89
3 90 91 92
3 93 50 94
3 95 89 57
3 96 97 98
3 99 100 101
3 102 103 104
3 105 106 107
3 108 105 107
3 71 109 110
3 111 112 113
3 21 109 114
3 115 116 117
3 118 119 120
3 114 121 21
3 122 123 71
3 124 125 126
3 127 128 129
3 130 131 132
3 133 134 135
3 136 137 138
3 133 139 140
3 129 141 127
3 142 143 144
3 145 146 147
3 52 148 149
3 150 151 152
3 153 154 155
3 156 157 158
3 159 160 161
3 162 163 164
3 165 166 167
3 168 169 170
3 171 172 173
3 174 175 176
3 177 178 179
3 180 181 182
3 183 184 185
3 186 187 188
3 189 190 191
3 192 193 194
3 180 195 196
3 71 110 72
3 197 6 8
3 198 197 199
3 200 201 198
3 202 203 200
3 204 205 202
3 72 206 204
3 86 199 60
3 207 202 200
3 208 209 210
3 197 39 6
3 211 212 213
3 205 214 203
3 215 216 217
3 218 219 220
3 221 222 223
3 224 225 226
3 213 227 228
3 229 230 231
3 232 233 234
3 235 236 237
3 238 239 232
3 240 241 242
3 243 244 245
3 246 247 248
3 249 250 251
3 252 253 254
3 248 255 256
3 257 258 259
3 260 261 252
3 262 263 264
3 0 56 1
3 6 40 7
3 265 266 267
3 12 268 13
3 269 270 271
3 271 15 17
3 272 16 15
3 15 273 272
3 17 269 271
3 18 274 19
3 21 121 22
3 24 144 25
3 27 275 28
3 78 32 31
3 31 276 78
3 36 277 37
3 41 278 42
3 279 280 281
3 48 282 49
3 44 283 51
3 52 284 53
3 0 285 55
3 7 87 60
3 286 266 265
3 287 288 289
3 290 66 65
3 287 289 290
3 291 65 64
3 287 290 65
3 67 292 68
3 70 122 71
3 293 294 295
3 76 275 27
3 296 32 79
3 78 297 79
3 83 298 84
3 42 299 88
3 45 47 300
3 93 48 50
3 95 301 89
3 302 303 304
3 305 306 307
3 105 308 106
3 108 309 105
3 71 123 109
3 99 101 310
3 21 110 109
3 118 311 119
3 312 313 314
3 315 316 317
3 318 319 320
3 133 321 134
3 322 323 324
3 133 325 139
3 326 327 328
3 142 329 143
3 330 331 332
3 52 333 148
3 150 334 151
3 335 336 337
3 156 338 157
3 339 340 341
3 162 342 163
3 343 344 345
3 168 158 169
3 340 339 346
3 174 347 175
3 348 349 350
3 180 351 181
3 183 194 184
3 186 352 187
3 353 354 355
3 192 356 193
3 180 357 195
3 23 72 110
3 110 21 23
3 8 60 199
3 199 197 8
3 198 201 197
3 200 203 201
3 202 205 203
3 204 206 205
3 72 23 206
3 86 358 199
3 207 359 202
3 197 360 39
3 211 361 212
3 205 362 214
3 363 220 219
3 218 364 219
3 365 223 222
3 221 366 222
3 367 226 225
3 224 368 225
3 213 212 227
3 232 239 233
3 238 369 239
3 246 370 247
3 252 261 253
3 248 247 255
3 260 371 261
3 372 264 263
3 262 373 263
