ply
format ascii 1.0
comment Created by Blender 2.79 (sub 0) - www.blender.org, source file: 'Wagon.blend'
element vertex 266
property float x
property float y
property float z
property float nx
property float ny
property float nz
property uchar red
property uchar green
property uchar blue
element face 224
property list uchar uint vertex_indices
end_header
0.466817 -0.213654 0.001258 0.000000 -1.000000 0.000000 255 0 0
0.333439 -0.213654 0.026985 0.000000 -1.000000 0.000000 255 0 0
0.333439 -0.213654 0.001258 0.000000 -1.000000 0.000000 255 0 0
-0.483979 0.152103 0.001258 -0.000000 0.000000 -1.000000 255 0 0
-0.333450 0.214827 0.001258 -0.000000 0.000000 -1.000000 255 0 0
-0.333450 0.152103 0.001258 -0.000000 0.000000 -1.000000 255 0 0
-0.483979 -0.213654 0.001258 -1.000000 -0.000000 0.000000 255 0 0
-0.483979 -0.150929 0.026985 -1.000000 -0.000000 0.000000 255 0 0
-0.483979 -0.150929 0.001258 -1.000000 -0.000000 0.000000 255 0 0
0.466817 -0.213654 0.026985 0.000000 -1.000000 0.000000 255 0 0
0.333439 -0.213654 0.199572 0.000000 -1.000000 0.000000 255 0 0
-0.483979 0.152103 0.026985 -1.000000 -0.000000 0.000000 255 0 0
-0.483979 0.214827 0.199572 -1.000000 -0.000000 0.000000 255 0 0
-0.483979 0.214827 0.026985 -1.000000 -0.000000 0.000000 255 0 0
-0.066694 0.214827 0.001258 0.000000 1.000000 -0.000000 255 0 0
0.066684 0.214827 0.026985 0.000000 1.000000 -0.000000 255 0 0
0.066684 0.214827 0.001258 0.000000 1.000000 -0.000000 255 0 0
-0.472293 -0.200980 0.026985 0.000000 1.000000 -0.000000 255 255 255
-0.325464 -0.200980 0.199572 0.000000 1.000000 -0.000000 255 255 255
-0.325464 -0.200980 0.026985 0.000000 1.000000 -0.000000 255 255 255
-0.333450 -0.213654 0.001258 -0.000000 -0.000000 -1.000000 255 0 0
-0.483979 -0.150929 0.001258 -0.000000 -0.000000 -1.000000 255 0 0
-0.333450 -0.150929 0.001258 -0.000000 -0.000000 -1.000000 255 0 0
-0.066694 0.214827 0.026985 0.000000 1.000000 -0.000000 255 0 0
0.066684 0.214827 0.199572 0.000000 1.000000 -0.000000 255 0 0
0.066684 -0.213654 0.199572 0.000000 -1.000000 0.000000 255 0 0
0.066684 -0.213654 0.026985 0.000000 -1.000000 0.000000 255 0 0
-0.483979 0.214827 0.026985 0.000000 1.000000 -0.000000 255 0 0
-0.333450 0.214827 0.199572 0.000000 1.000000 -0.000000 255 0 0
-0.333450 0.214827 0.026985 0.000000 1.000000 -0.000000 255 0 0
-0.483979 0.152103 0.001258 -1.000000 -0.000000 0.000000 255 0 0
-0.483979 0.214827 0.001258 -1.000000 -0.000000 0.000000 255 0 0
0.325032 0.202154 0.026985 0.000000 -1.000000 0.000000 255 255 255
0.064833 0.202154 0.199572 0.000000 -1.000000 0.000000 255 255 255
0.064833 0.202154 0.026985 0.000000 -1.000000 0.000000 255 255 255
-0.483979 -0.213654 0.026985 -1.000000 -0.000000 0.000000 255 0 0
-0.483979 -0.150929 0.199572 -1.000000 -0.000000 0.000000 255 0 0
-0.066694 -0.213654 0.199572 0.000000 -1.000000 0.000000 255 0 0
-0.066694 -0.213654 0.026985 0.000000 -1.000000 0.000000 255 0 0
0.466817 0.000587 0.001258 1.000000 -0.000000 0.000000 255 0 0
0.466817 -0.150929 0.026985 1.000000 -0.000000 0.000000 255 0 0
0.466817 -0.150929 0.001258 1.000000 -0.000000 0.000000 255 0 0
0.466817 0.214827 0.026985 1.000000 -0.000000 0.000000 255 0 0
0.466817 0.152103 0.199572 1.000000 -0.000000 0.000000 255 0 0
0.466817 0.152103 0.026985 1.000000 -0.000000 0.000000 255 0 0
0.333439 0.214827 0.026985 0.000000 1.000000 -0.000000 255 0 0
0.333439 0.214827 0.001258 0.000000 1.000000 -0.000000 255 0 0
-0.483979 0.000587 0.001258 -1.000000 0.000000 0.000000 255 0 0
-0.483979 0.000587 0.026985 -1.000000 0.000000 0.000000 255 0 0
0.466817 0.214827 0.026985 0.000000 1.000000 -0.000000 255 0 0
0.466817 0.214827 0.001258 0.000000 1.000000 -0.000000 255 0 0
-0.066694 -0.213654 0.001258 0.000000 -1.000000 0.000000 255 0 0
-0.333450 -0.213654 0.026985 0.000000 -1.000000 0.000000 255 0 0
-0.333450 -0.213654 0.001258 0.000000 -1.000000 0.000000 255 0 0
-0.483979 -0.213654 0.026985 0.000000 -1.000000 0.000000 255 0 0
-0.483979 -0.213654 0.001258 0.000000 -1.000000 0.000000 255 0 0
0.466817 -0.213654 0.026985 1.000000 -0.000000 0.000000 255 0 0
0.466817 -0.213654 0.001258 1.000000 -0.000000 0.000000 255 0 0
0.466817 0.152103 0.001258 1.000000 -0.000000 0.000000 255 0 0
0.466817 0.000587 0.026985 1.000000 -0.000000 0.000000 255 0 0
0.466817 0.214827 0.001258 1.000000 -0.000000 0.000000 255 0 0
-0.483979 0.214827 0.001258 0.000000 1.000000 -0.000000 255 0 0
-0.333450 0.214827 0.001258 0.000000 1.000000 -0.000000 255 0 0
0.066684 -0.213654 0.001258 0.000000 -1.000000 0.000000 255 0 0
0.455131 -0.200980 0.026985 -1.000000 -0.000000 0.000000 255 255 255
0.455131 -0.141966 0.199572 -1.000000 -0.000000 0.000000 255 255 255
0.455131 -0.141966 0.026985 -1.000000 -0.000000 0.000000 255 255 255
-0.333450 -0.213654 0.199572 0.000000 -1.000000 0.000000 255 0 0
-0.483979 -0.213654 0.199572 0.000000 -1.000000 0.000000 255 0 0
-0.483979 0.000587 0.001258 -0.000000 -0.000000 -1.000000 255 0 0
0.466817 0.000587 0.001258 0.000000 0.000000 -1.000000 255 0 0
0.466817 -0.150929 0.001258 0.000000 0.000000 -1.000000 255 0 0
0.333439 -0.150929 0.001258 0.000000 0.000000 -1.000000 255 0 0
0.333439 0.152103 0.001258 -0.000000 -0.000000 -1.000000 255 0 0
0.466817 0.152103 0.001258 -0.000000 -0.000000 -1.000000 255 0 0
0.200061 -0.150929 0.001258 -0.000000 0.000000 -1.000000 255 0 0
0.066684 -0.150929 0.001258 -0.000000 0.000000 -1.000000 255 0 0
0.200061 0.152103 0.001258 -0.000000 0.000000 -1.000000 255 0 0
-0.066694 -0.150929 0.001258 -0.000000 0.000000 -1.000000 255 0 0
0.066684 0.152103 0.001258 -0.000000 0.000000 -1.000000 255 0 0
-0.200072 -0.150929 0.001258 -0.000000 0.000000 -1.000000 255 0 0
-0.066694 0.152103 0.001258 -0.000000 0.000000 -1.000000 255 0 0
-0.200072 0.152103 0.001258 -0.000000 0.000000 -1.000000 255 0 0
0.466817 -0.213654 0.001258 -0.000000 -0.000000 -1.000000 255 0 0
0.066684 -0.213654 0.001258 -0.000000 -0.000000 -1.000000 255 0 0
-0.333450 -0.213654 0.001258 -1.000000 0.000000 0.000000 255 0 0
-0.333450 -0.150929 0.001258 -1.000000 0.000000 0.000000 255 0 0
-0.333450 -0.150929 -0.098742 -1.000000 0.000000 0.000000 255 0 0
0.466817 0.214827 0.001258 -0.000000 0.000000 -1.000000 255 0 0
-0.066694 -0.150929 0.001258 -0.000000 1.000000 0.000000 255 0 0
-0.200072 -0.150929 -0.098742 -0.000000 1.000000 0.000000 255 0 0
-0.200072 -0.150929 0.001258 -0.000000 1.000000 0.000000 255 0 0
0.066684 0.214827 0.001258 -0.000000 0.000000 -1.000000 255 0 0
-0.066694 -0.150929 0.001258 1.000000 0.000000 -0.000000 255 0 0
-0.066694 -0.213654 0.001258 1.000000 0.000000 -0.000000 255 0 0
-0.066694 -0.150929 -0.098742 1.000000 0.000000 -0.000000 255 0 0
0.333439 -0.150929 -0.098742 0.000000 -0.847141 -0.531369 255 0 0
0.333439 -0.213654 0.001258 0.000000 -0.847141 -0.531369 255 0 0
0.066684 -0.213654 0.001258 0.000000 -0.847141 -0.531369 255 0 0
0.066684 -0.213654 0.001258 -0.000000 -0.847140 -0.531369 255 0 0
0.066684 -0.150929 -0.098742 -0.000000 -0.847140 -0.531369 255 0 0
0.200061 -0.150929 -0.098742 -0.000000 -0.847140 -0.531369 255 0 0
0.200061 -0.150929 -0.098742 -0.000000 -0.847141 -0.531369 255 0 0
0.066684 0.152103 -0.098742 0.000000 0.847142 -0.531366 255 0 0
0.066684 0.214827 0.001258 0.000000 0.847142 -0.531366 255 0 0
0.333439 0.214827 0.001258 0.000000 0.847142 -0.531366 255 0 0
0.333439 0.152103 -0.098742 0.000000 0.847142 -0.531366 255 0 0
0.200061 0.152103 -0.098742 0.000000 0.847142 -0.531366 255 0 0
-0.066694 -0.150929 -0.098742 0.000000 -0.847141 -0.531369 255 0 0
-0.066694 -0.213654 0.001258 0.000000 -0.847141 -0.531369 255 0 0
-0.333450 -0.213654 0.001258 0.000000 -0.847141 -0.531369 255 0 0
-0.333450 -0.213654 0.001258 -0.000000 -0.847140 -0.531369 255 0 0
-0.333450 -0.150929 -0.098742 -0.000000 -0.847140 -0.531369 255 0 0
-0.200072 -0.150929 -0.098742 -0.000000 -0.847140 -0.531369 255 0 0
-0.200072 -0.150929 -0.098742 -0.000000 -0.847141 -0.531369 255 0 0
-0.333450 -0.150929 -0.098742 -0.000000 1.000000 0.000000 255 0 0
-0.333450 -0.150929 0.001258 -0.000000 1.000000 0.000000 255 0 0
0.333439 0.214827 0.001258 1.000000 0.000000 0.000000 255 0 0
0.333439 0.152103 0.001258 1.000000 0.000000 0.000000 255 0 0
0.333439 0.152103 -0.098742 1.000000 0.000000 0.000000 255 0 0
0.200061 0.152103 0.001258 -0.000000 -1.000000 -0.000000 255 0 0
0.333439 0.152103 -0.098742 -0.000000 -1.000000 -0.000000 255 0 0
0.333439 0.152103 0.001258 -0.000000 -1.000000 -0.000000 255 0 0
0.066684 0.152103 0.001258 -1.000000 0.000000 0.000000 255 0 0
0.066684 0.214827 0.001258 -1.000000 0.000000 0.000000 255 0 0
0.066684 0.152103 -0.098742 -1.000000 0.000000 0.000000 255 0 0
0.066684 0.152103 0.001258 -0.000000 -1.000000 -0.000000 255 0 0
0.200061 0.152103 -0.098742 -0.000000 -1.000000 -0.000000 255 0 0
-0.066694 0.214827 0.001258 1.000000 0.000000 0.000000 255 0 0
-0.066694 0.152103 0.001258 1.000000 0.000000 0.000000 255 0 0
-0.066694 0.152103 -0.098742 1.000000 0.000000 0.000000 255 0 0
-0.333450 0.152103 0.001258 -1.000000 0.000000 0.000000 255 0 0
-0.333450 0.214827 0.001258 -1.000000 0.000000 0.000000 255 0 0
-0.333450 0.152103 -0.098742 -1.000000 0.000000 0.000000 255 0 0
0.333439 -0.150929 0.001258 -0.000000 1.000000 0.000000 255 0 0
0.200061 -0.150929 -0.098742 -0.000000 1.000000 0.000000 255 0 0
0.200061 -0.150929 0.001258 -0.000000 1.000000 0.000000 255 0 0
0.333439 -0.150929 0.001258 1.000000 0.000000 -0.000000 255 0 0
0.333439 -0.213654 0.001258 1.000000 0.000000 -0.000000 255 0 0
0.333439 -0.150929 -0.098742 1.000000 0.000000 -0.000000 255 0 0
-0.200072 0.152103 0.001258 -0.000000 -1.000000 -0.000000 255 0 0
-0.066694 0.152103 -0.098742 -0.000000 -1.000000 -0.000000 255 0 0
-0.066694 0.152103 0.001258 -0.000000 -1.000000 -0.000000 255 0 0
0.066684 -0.150929 -0.098742 -0.000000 1.000000 0.000000 255 0 0
0.066684 -0.150929 0.001258 -0.000000 1.000000 0.000000 255 0 0
0.066684 -0.213654 0.001258 -1.000000 0.000000 0.000000 255 0 0
0.066684 -0.150929 0.001258 -1.000000 0.000000 0.000000 255 0 0
0.066684 -0.150929 -0.098742 -1.000000 0.000000 0.000000 255 0 0
-0.333450 0.152103 0.001258 -0.000000 -1.000000 -0.000000 255 0 0
-0.200072 0.152103 -0.098742 -0.000000 -1.000000 -0.000000 255 0 0
-0.333450 0.152103 -0.098742 0.000000 0.847142 -0.531366 255 0 0
-0.333450 0.214827 0.001258 0.000000 0.847142 -0.531366 255 0 0
-0.066694 0.214827 0.001258 0.000000 0.847142 -0.531366 255 0 0
-0.066694 0.152103 -0.098742 0.000000 0.847142 -0.531366 255 0 0
-0.200072 0.152103 -0.098742 0.000000 0.847142 -0.531366 255 0 0
-0.472293 0.143140 0.026985 -0.000000 0.000000 1.000000 255 255 255
-0.325464 0.202154 0.026985 -0.000000 0.000000 1.000000 255 255 255
-0.472293 0.202154 0.026985 -0.000000 0.000000 1.000000 255 255 255
0.455131 0.000587 0.026985 0.000000 0.000000 1.000000 255 255 255
0.455131 0.143140 0.026985 0.000000 0.000000 1.000000 255 255 255
0.325032 0.202154 0.026985 0.000000 0.000000 1.000000 255 255 255
-0.472293 0.000587 0.026985 0.000000 0.000000 1.000000 255 255 255
-0.325464 -0.200980 0.026985 0.000000 0.000000 1.000000 255 255 255
0.064833 -0.200980 0.026985 -0.000000 0.000000 1.000000 255 255 255
-0.065266 0.202154 0.026985 -0.000000 0.000000 1.000000 255 255 255
-0.065266 -0.200980 0.026985 -0.000000 0.000000 1.000000 255 255 255
0.455131 0.202154 0.026985 -0.000000 0.000000 1.000000 255 255 255
0.455131 -0.200980 0.026985 -0.000000 0.000000 1.000000 255 255 255
0.455131 -0.141966 0.026985 -0.000000 0.000000 1.000000 255 255 255
0.325032 -0.200980 0.026985 -0.000000 0.000000 1.000000 255 255 255
-0.472293 -0.200980 0.026985 0.000000 0.000000 1.000000 255 255 255
-0.472293 -0.141966 0.026985 0.000000 0.000000 1.000000 255 255 255
0.455131 0.000587 0.199572 -1.000000 -0.000000 0.000000 255 255 255
0.455131 0.000587 0.026985 -1.000000 -0.000000 0.000000 255 255 255
-0.066694 0.214827 0.199572 0.000000 1.000000 -0.000000 255 0 0
-0.472293 0.000587 0.026985 1.000000 -0.000000 0.000000 255 255 255
-0.472293 -0.141966 0.199572 1.000000 -0.000000 0.000000 255 255 255
-0.472293 -0.141966 0.026985 1.000000 -0.000000 0.000000 255 255 255
0.333439 0.214827 0.199572 0.000000 1.000000 -0.000000 255 0 0
-0.065266 0.202154 0.199572 0.000000 -1.000000 0.000000 255 255 255
-0.065266 0.202154 0.026985 0.000000 -1.000000 0.000000 255 255 255
0.466817 0.152103 0.199572 -0.000000 0.000000 1.000000 255 0 0
0.455131 0.202154 0.199572 -0.000000 0.000000 1.000000 255 0 0
0.455131 0.143140 0.199572 -0.000000 0.000000 1.000000 255 0 0
-0.066694 0.214827 0.199572 0.000000 -0.000000 1.000000 255 0 0
-0.325464 0.202154 0.199572 0.000000 -0.000000 1.000000 255 0 0
-0.065266 0.202154 0.199572 0.000000 -0.000000 1.000000 255 0 0
0.333439 -0.213654 0.199572 -0.000000 0.000000 1.000000 255 0 0
0.455131 -0.200980 0.199572 -0.000000 0.000000 1.000000 255 0 0
0.325032 -0.200980 0.199572 -0.000000 0.000000 1.000000 255 0 0
-0.333450 -0.213654 0.199572 -0.000000 0.000000 1.000000 255 0 0
-0.472293 -0.200980 0.199572 -0.000000 0.000000 1.000000 255 0 0
-0.483979 -0.213654 0.199572 -0.000000 0.000000 1.000000 255 0 0
0.066684 -0.213654 0.199572 -0.000000 0.000000 1.000000 255 0 0
0.064833 -0.200980 0.199572 -0.000000 0.000000 1.000000 255 0 0
0.466817 0.000587 0.199572 0.000000 -0.000000 1.000000 255 0 0
0.455131 -0.141966 0.199572 0.000000 -0.000000 1.000000 255 0 0
0.466817 -0.150929 0.199572 0.000000 -0.000000 1.000000 255 0 0
-0.066694 -0.213654 0.199572 -0.000000 0.000000 1.000000 255 0 0
-0.065266 -0.200980 0.199572 -0.000000 0.000000 1.000000 255 0 0
0.066684 0.214827 0.199572 0.000000 0.000000 1.000000 255 0 0
0.325032 0.202154 0.199572 0.000000 0.000000 1.000000 255 0 0
0.333439 0.214827 0.199572 0.000000 0.000000 1.000000 255 0 0
0.455131 0.000587 0.199572 -0.000000 0.000000 1.000000 255 0 0
-0.483979 0.000587 0.199572 0.000000 0.000000 1.000000 255 0 0
-0.472293 -0.141966 0.199572 0.000000 0.000000 1.000000 255 0 0
-0.472293 0.000587 0.199572 0.000000 0.000000 1.000000 255 0 0
-0.325464 -0.200980 0.199572 -0.000000 0.000000 1.000000 255 0 0
-0.472293 0.143140 0.199572 0.000000 0.000000 1.000000 255 0 0
-0.483979 0.152103 0.199572 0.000000 0.000000 1.000000 255 0 0
0.064833 0.202154 0.199572 0.000000 0.000000 1.000000 255 0 0
-0.333450 0.214827 0.199572 0.000000 -0.000000 1.000000 255 0 0
-0.472293 0.202154 0.199572 0.000000 -0.000000 1.000000 255 0 0
0.466817 0.214827 0.199572 0.000000 0.000000 1.000000 255 0 0
-0.483979 -0.150929 0.199572 0.000000 0.000000 1.000000 255 0 0
-0.483979 0.214827 0.199572 0.000000 0.000000 1.000000 255 0 0
0.466817 -0.213654 0.199572 0.000000 -0.000000 1.000000 255 0 0
-0.483979 0.000587 0.199572 -1.000000 -0.000000 0.000000 255 0 0
0.455131 0.143140 0.026985 -1.000000 -0.000000 0.000000 255 255 255
0.455131 0.202154 0.199572 -1.000000 -0.000000 0.000000 255 255 255
0.455131 0.202154 0.026985 -1.000000 -0.000000 0.000000 255 255 255
-0.483979 0.152103 0.199572 -1.000000 -0.000000 0.000000 255 0 0
0.466817 -0.150929 0.199572 1.000000 -0.000000 0.000000 255 0 0
-0.325464 0.202154 0.026985 0.000000 -1.000000 0.000000 255 255 255
-0.472293 0.202154 0.199572 0.000000 -1.000000 0.000000 255 255 255
-0.472293 0.202154 0.026985 0.000000 -1.000000 0.000000 255 255 255
0.466817 0.000587 0.199572 1.000000 -0.000000 0.000000 255 0 0
-0.472293 0.202154 0.026985 1.000000 -0.000000 0.000000 255 255 255
-0.472293 0.143140 0.199572 1.000000 -0.000000 0.000000 255 255 255
-0.472293 0.143140 0.026985 1.000000 -0.000000 0.000000 255 255 255
-0.065266 -0.200980 0.199572 0.000000 1.000000 -0.000000 255 255 255
-0.065266 -0.200980 0.026985 0.000000 1.000000 -0.000000 255 255 255
-0.472293 0.000587 0.199572 1.000000 -0.000000 0.000000 255 255 255
0.466817 0.214827 0.199572 0.000000 1.000000 -0.000000 255 0 0
0.064833 -0.200980 0.199572 0.000000 1.000000 -0.000000 255 255 255
0.064833 -0.200980 0.026985 0.000000 1.000000 -0.000000 255 255 255
0.455131 0.143140 0.199572 -1.000000 -0.000000 0.000000 255 255 255
0.455131 0.202154 0.026985 0.000000 -1.000000 0.000000 255 255 255
0.325032 0.202154 0.199572 0.000000 -1.000000 0.000000 255 255 255
0.325032 -0.200980 0.199572 0.000000 1.000000 -0.000000 255 255 255
0.325032 -0.200980 0.026985 0.000000 1.000000 -0.000000 255 255 255
-0.325464 0.202154 0.199572 0.000000 -1.000000 0.000000 255 255 255
0.455131 -0.200980 0.199572 0.000000 1.000000 -0.000000 255 255 255
0.455131 -0.200980 0.026985 0.000000 1.000000 -0.000000 255 255 255
0.466817 -0.213654 0.199572 1.000000 -0.000000 0.000000 255 0 0
-0.472293 -0.200980 0.199572 1.000000 -0.000000 0.000000 255 255 255
-0.472293 -0.200980 0.026985 1.000000 -0.000000 0.000000 255 255 255
-0.483979 0.214827 0.001258 -0.000000 -0.000000 -1.000000 255 0 0
0.466817 -0.213654 0.199572 0.000000 -1.000000 0.000000 255 0 0
-0.472293 -0.200980 0.199572 0.000000 1.000000 0.000000 255 255 255
-0.483979 -0.213654 0.001258 0.000000 0.000000 -1.000000 255 0 0
-0.483979 0.214827 0.199572 0.000000 1.000000 0.000000 255 0 0
-0.483979 -0.213654 0.199572 -1.000000 -0.000000 -0.000000 255 0 0
0.466817 0.214827 0.199572 1.000000 -0.000000 0.000000 255 0 0
0.455131 -0.200980 0.199572 -1.000000 -0.000000 -0.000000 255 255 255
0.333439 -0.213654 0.001258 0.000000 0.000000 -1.000000 255 0 0
-0.066694 -0.213654 0.001258 0.000000 0.000000 -1.000000 255 0 0
0.333439 0.214827 0.001258 -0.000000 -0.000000 -1.000000 255 0 0
-0.066694 -0.150929 -0.098742 0.000000 1.000000 0.000000 255 0 0
-0.066694 0.214827 0.001258 -0.000000 -0.000000 -1.000000 255 0 0
0.066684 0.152103 -0.098742 0.000000 -1.000000 0.000000 255 0 0
0.333439 -0.150929 -0.098742 0.000000 1.000000 0.000000 255 0 0
-0.333450 0.152103 -0.098742 0.000000 -1.000000 0.000000 255 0 0
0.064833 0.202154 0.026985 -0.000000 0.000000 1.000000 255 255 255
-0.472293 0.202154 0.199572 1.000000 -0.000000 0.000000 255 255 255
0.455131 0.202154 0.199572 0.000000 -1.000000 0.000000 255 255 255
3 0 1 2
3 3 4 5
3 6 7 8
3 9 10 1
3 11 12 13
3 14 15 16
3 17 18 19
3 20 21 22
3 23 24 15
3 1 25 26
3 27 28 29
3 30 13 31
3 32 33 34
3 35 36 7
3 26 37 38
3 39 40 41
3 42 43 44
3 16 45 46
3 11 47 48
3 46 49 50
3 51 52 53
3 53 54 55
3 41 56 57
3 58 59 39
3 60 44 58
3 61 29 62
3 2 26 63
3 48 8 7
3 64 65 66
3 38 67 52
3 62 23 14
3 63 38 51
3 52 68 54
3 5 22 21
3 69 3 5
3 21 69 5
3 70 71 72
3 72 73 74
3 72 74 70
3 75 73 72
3 76 77 75
3 78 79 76
3 80 81 78
3 22 82 80
3 83 72 71
3 84 78 76
3 85 86 87
3 73 88 74
3 89 90 91
3 81 92 79
3 93 94 95
3 96 97 98
3 99 100 101
3 98 102 96
3 103 104 105
3 105 106 107
3 105 107 103
3 108 109 110
3 111 112 113
3 110 114 108
3 91 115 116
3 117 118 119
3 120 121 122
3 123 124 125
3 126 127 120
3 128 129 130
3 131 132 133
3 134 135 136
3 137 138 139
3 140 141 142
3 136 143 144
3 145 146 147
3 148 149 140
3 150 151 152
3 152 153 154
3 152 154 150
3 155 156 157
3 158 159 160
3 161 162 156
3 163 164 165
3 159 166 160
3 167 168 169
3 170 162 171
3 155 161 156
3 169 168 158
3 160 163 169
3 171 162 161
3 169 158 160
3 156 165 164
3 66 172 173
3 29 174 23
3 175 176 177
3 15 178 45
3 34 179 180
3 181 182 183
3 184 185 186
3 187 188 189
3 190 191 192
3 193 189 194
3 195 196 197
3 198 194 199
3 200 201 202
3 195 183 203
3 204 205 206
3 198 207 190
3 204 208 209
3 184 210 200
3 211 212 185
3 202 182 213
3 214 191 205
3 209 212 215
3 197 188 216
3 7 217 48
3 218 219 220
3 48 221 11
3 59 222 40
3 223 224 225
3 44 226 59
3 227 228 229
3 19 230 231
3 229 232 175
3 45 233 49
3 231 234 235
3 173 236 218
3 237 238 32
3 235 239 240
3 180 241 223
3 240 242 243
3 40 244 56
3 177 245 246
3 0 9 1
3 3 247 4
3 6 35 7
3 9 248 10
3 11 221 12
3 14 23 15
3 17 249 18
3 20 250 21
3 23 174 24
3 1 10 25
3 27 251 28
3 30 11 13
3 32 238 33
3 35 252 36
3 26 25 37
3 39 59 40
3 42 253 43
3 16 15 45
3 11 30 47
3 46 45 49
3 51 38 52
3 53 52 54
3 41 40 56
3 58 44 59
3 60 42 44
3 61 27 29
3 2 1 26
3 48 47 8
3 64 254 65
3 38 37 67
3 62 29 23
3 63 26 38
3 52 67 68
3 75 77 73
3 76 79 77
3 78 81 79
3 80 82 81
3 22 5 82
3 83 255 72
3 84 256 78
3 73 257 88
3 89 258 90
3 81 259 92
3 91 90 115
3 120 127 121
3 126 260 127
3 134 261 135
3 140 149 141
3 136 135 143
3 148 262 149
3 163 263 164
3 160 263 163
3 156 162 165
3 66 65 172
3 29 28 174
3 175 232 176
3 15 24 178
3 34 33 179
3 181 213 182
3 184 211 185
3 187 216 188
3 190 207 191
3 193 187 189
3 195 203 196
3 198 193 194
3 200 210 201
3 195 181 183
3 204 214 205
3 198 199 207
3 204 206 208
3 184 186 210
3 211 215 212
3 202 201 182
3 214 192 191
3 209 208 212
3 197 196 188
3 7 36 217
3 218 236 219
3 48 217 221
3 59 226 222
3 223 241 224
3 44 43 226
3 227 264 228
3 19 18 230
3 229 228 232
3 45 178 233
3 231 230 234
3 173 172 236
3 237 265 238
3 235 234 239
3 180 179 241
3 240 239 242
3 40 222 244
3 177 176 245
