ply
format ascii 1.0
comment Created by Blender 2.79 (sub 0) - www.blender.org, source file: 'LittleRedDiesel.blend'
element vertex 258
property float x
property float y
property float z
property float nx
property float ny
property float nz
property uchar red
property uchar green
property uchar blue
element face 146
property list uchar uint vertex_indices
end_header
0.022814 -0.001661 0.309099 -0.978508 0.000000 0.206209 255 0 0
0.044449 0.155413 0.411762 -0.978508 0.000000 0.206209 255 0 0
0.022814 0.186065 0.309099 -0.978508 0.000000 0.206209 255 0 0
0.398233 0.186065 0.309099 0.000000 0.999150 0.041216 255 0 0
0.905368 0.186065 0.309099 0.000000 0.999150 0.041216 255 0 0
0.953776 0.192313 0.157645 0.000000 0.999150 0.041216 255 0 0
0.953776 0.192313 0.001258 0.000000 0.000000 -1.000000 255 0 0
0.996385 -0.001661 0.001258 0.000000 0.000000 -1.000000 255 0 0
0.953776 -0.001661 0.001258 0.000000 0.000000 -1.000000 255 0 0
0.953776 -0.001661 0.155261 0.218608 -0.011991 0.975739 255 0 0
0.996385 0.192313 0.148099 0.218608 -0.011991 0.975739 255 0 0
0.953776 0.192313 0.157645 0.218608 -0.011991 0.975739 255 0 0
0.022814 0.192313 0.001258 -0.000000 -0.000000 -1.000000 255 0 0
0.006308 -0.195635 0.148099 -0.775376 -0.631500 -0.000000 255 0 0
0.022814 -0.215902 0.001258 -0.775376 -0.631500 -0.000000 255 0 0
0.022814 -0.215902 0.148099 -0.775376 -0.631500 -0.000000 255 0 0
0.022814 0.212579 0.148099 0.000000 1.000000 -0.000000 255 0 0
0.931458 0.212579 0.001258 0.000000 1.000000 -0.000000 255 0 0
0.022814 0.212579 0.001258 0.000000 1.000000 -0.000000 255 0 0
0.022814 0.192313 0.157645 -0.000000 0.426129 0.904662 255 0 0
0.931458 0.212579 0.148099 -0.000000 0.426129 0.904662 255 0 0
0.022814 0.212579 0.148099 -0.000000 0.426129 0.904662 255 0 0
0.931458 0.212579 0.001258 -0.000000 0.000000 -1.000000 255 0 0
0.357165 0.155413 0.411762 0.928469 0.000000 0.371409 255 0 0
0.361067 0.014717 0.402009 0.928469 0.000000 0.371409 255 0 0
0.361067 0.141947 0.402009 0.928469 0.000000 0.371409 255 0 0
0.996385 -0.001661 0.148099 1.000000 0.000000 0.000000 255 0 0
0.996385 0.192313 0.001258 1.000000 0.000000 0.000000 255 0 0
0.996385 0.192313 0.148099 1.000000 0.000000 0.000000 255 0 0
0.357165 0.155413 0.411762 0.000000 -0.000000 1.000000 255 0 0
0.200807 0.155413 0.411762 0.000000 -0.000000 1.000000 255 0 0
0.357165 -0.001661 0.411762 0.000000 -0.000000 1.000000 255 0 0
0.953776 0.192313 0.157645 0.179070 0.573683 0.799263 255 0 0
0.996385 0.192313 0.148099 0.179070 0.573683 0.799263 255 0 0
0.931458 0.212579 0.148099 0.179070 0.573683 0.799263 255 0 0
0.996385 0.192313 0.001258 0.297962 0.954578 0.000000 255 0 0
0.931458 0.212579 0.148099 0.297962 0.954578 0.000000 255 0 0
0.996385 0.192313 0.148099 0.297962 0.954578 0.000000 255 0 0
0.996385 0.192313 0.001258 0.000000 0.000000 -1.000000 255 0 0
0.905368 0.186065 0.309099 0.000000 -0.000000 1.000000 255 0 0
0.398233 -0.001661 0.309099 0.000000 -0.000000 1.000000 255 0 0
0.905368 -0.001661 0.309099 0.000000 -0.000000 1.000000 255 0 0
0.022814 0.192313 0.157645 -0.000000 0.999150 0.041216 255 0 0
0.953776 -0.001661 0.155261 0.953889 -0.000000 0.300160 255 0 0
0.905368 0.186065 0.309099 0.953889 -0.000000 0.300160 255 0 0
0.905368 -0.001661 0.309099 0.953889 -0.000000 0.300160 255 0 0
0.006308 -0.001661 0.001258 -1.000000 0.000000 0.000000 255 0 0
0.006308 -0.195635 0.148099 -1.000000 0.000000 0.000000 255 0 0
0.006308 -0.001661 0.148099 -1.000000 0.000000 0.000000 255 0 0
0.210523 0.186065 0.309099 0.000000 0.999150 0.041216 255 0 0
0.210523 0.186065 0.309099 0.000000 0.958202 0.286091 255 0 0
0.376922 0.183000 0.319365 0.000000 0.958202 0.286091 255 0 0
0.398233 0.186065 0.309099 0.000000 0.958202 0.286091 255 0 0
0.044449 -0.158736 0.411762 -0.978508 0.000000 0.206209 255 0 0
0.044449 -0.001661 0.411762 -0.978508 0.000000 0.206209 255 0 0
0.398233 -0.189388 0.309099 0.000000 -0.999150 0.041216 255 0 0
0.953776 -0.195635 0.157645 0.000000 -0.999150 0.041216 255 0 0
0.905368 -0.189388 0.309099 0.000000 -0.999150 0.041216 255 0 0
0.953776 -0.195635 0.001258 0.000000 0.000000 -1.000000 255 0 0
0.996385 -0.195635 0.148099 0.218608 0.011991 0.975739 255 0 0
0.953776 -0.001661 0.155261 0.218608 0.011991 0.975739 255 0 0
0.953776 -0.195635 0.157645 0.218608 0.011991 0.975739 255 0 0
0.022814 -0.195635 0.001258 -0.000000 0.000000 -1.000000 255 0 0
0.931458 -0.215902 0.001258 0.000000 -1.000000 0.000000 255 0 0
0.022814 -0.215902 0.148099 0.000000 -1.000000 0.000000 255 0 0
0.022814 -0.215902 0.001258 0.000000 -1.000000 0.000000 255 0 0
0.022814 -0.195635 0.157645 0.000000 -0.426130 0.904662 255 0 0
0.931458 -0.215902 0.148099 0.000000 -0.426130 0.904662 255 0 0
0.953776 -0.195635 0.157645 0.000000 -0.426130 0.904662 255 0 0
0.931458 -0.215902 0.001258 -0.000000 -0.000000 -1.000000 255 0 0
0.357165 -0.158736 0.411762 0.928470 -0.000002 0.371407 255 0 0
0.394331 -0.170098 0.318852 0.928470 -0.000002 0.371407 255 0 0
0.361067 -0.145270 0.402009 0.928470 -0.000002 0.371407 255 0 0
0.996385 -0.195635 0.001258 1.000000 -0.000000 0.000000 255 0 0
0.996385 -0.195635 0.148099 1.000000 -0.000000 0.000000 255 0 0
0.044449 -0.001661 0.411762 0.000000 0.000000 1.000000 255 0 0
0.200807 -0.158736 0.411762 0.000000 0.000000 1.000000 255 0 0
0.953776 -0.195635 0.157645 0.179070 -0.573684 0.799263 255 0 0
0.931458 -0.215902 0.148099 0.179070 -0.573684 0.799263 255 0 0
0.996385 -0.195635 0.148099 0.179070 -0.573684 0.799263 255 0 0
0.931458 -0.215902 0.148099 0.297962 -0.954578 0.000000 255 0 0
0.996385 -0.195635 0.001258 0.297962 -0.954578 0.000000 255 0 0
0.996385 -0.195635 0.148099 0.297962 -0.954578 0.000000 255 0 0
0.996385 -0.195635 0.001258 -0.000000 0.000000 -1.000000 255 0 0
0.905368 -0.189388 0.309099 0.000000 0.000000 1.000000 255 0 0
0.022814 -0.195635 0.157645 0.000000 -0.999150 0.041216 255 0 0
0.953776 -0.001661 0.155261 0.952567 0.003740 0.304308 255 0 0
0.905368 -0.189388 0.309099 0.952567 0.003740 0.304308 255 0 0
0.953776 -0.195635 0.157645 0.952567 0.003740 0.304308 255 0 0
0.006308 0.192313 0.001258 -1.000000 0.000000 0.000000 255 0 0
0.006308 0.192313 0.148099 -1.000000 0.000000 0.000000 255 0 0
0.210523 -0.189388 0.309099 0.000000 -0.999150 0.041216 255 0 0
0.357165 -0.158736 0.411762 -0.000000 -0.958203 0.286090 255 0 0
0.376922 -0.186323 0.319365 -0.000000 -0.958203 0.286090 255 0 0
0.398233 -0.189388 0.309099 -0.000000 -0.958203 0.286090 255 0 0
0.022814 -0.001661 0.155178 -0.394180 0.000000 0.919033 255 0 0
0.006308 0.192313 0.148099 -0.394180 0.000000 0.919033 255 0 0
0.006308 -0.001661 0.148099 -0.394180 0.000000 0.919033 255 0 0
0.022814 -0.195635 0.157645 -0.463594 -0.377571 0.801574 255 0 0
0.006308 -0.195635 0.148099 -0.463594 -0.377571 0.801574 255 0 0
0.022814 -0.215902 0.148099 -0.463594 -0.377571 0.801574 255 0 0
0.022814 -0.001661 0.155178 -1.000000 -0.000000 -0.000000 255 0 0
0.022814 -0.189388 0.309099 -1.000000 -0.000000 -0.000000 255 0 0
0.022814 -0.001661 0.309099 -1.000000 -0.000000 -0.000000 255 0 0
0.022814 0.186065 0.309099 -1.000000 0.000000 0.000000 255 0 0
0.006308 -0.001661 0.001258 -0.000000 -0.000000 -1.000000 255 0 0
0.022814 -0.001661 0.001258 -0.000000 -0.000000 -1.000000 255 0 0
0.022814 -0.001661 0.155178 -0.500621 0.011008 0.865597 255 0 0
0.006308 -0.195635 0.148099 -0.500621 0.011008 0.865597 255 0 0
0.022814 -0.195635 0.157645 -0.500621 0.011008 0.865597 255 0 0
0.006308 0.192313 0.001258 -0.000000 -0.000000 -1.000000 255 0 0
0.022814 0.192313 0.157645 -0.463594 0.377571 0.801574 255 0 0
0.022814 0.212579 0.148099 -0.463594 0.377571 0.801574 255 0 0
0.006308 0.192313 0.148099 -0.463594 0.377571 0.801574 255 0 0
0.022814 0.212579 0.001258 -0.775376 0.631500 0.000000 255 0 0
0.006308 0.192313 0.148099 -0.775376 0.631500 0.000000 255 0 0
0.022814 0.212579 0.148099 -0.775376 0.631500 0.000000 255 0 0
0.022814 0.212579 0.001258 -0.000000 0.000000 -1.000000 255 0 0
0.022814 -0.215902 0.001258 -0.000000 -0.000000 -1.000000 255 0 0
0.006308 -0.195635 0.001258 -0.000000 -0.000000 -1.000000 255 0 0
0.394331 0.014717 0.318852 0.928470 -0.000000 0.371406 255 255 255
0.361067 0.141947 0.402009 0.928470 -0.000000 0.371406 255 255 255
0.361067 0.014717 0.402009 0.928470 -0.000000 0.371406 255 255 255
0.398233 -0.001661 0.309099 0.928470 -0.000002 0.371407 255 0 0
0.361067 0.014717 0.402009 0.928470 -0.000002 0.371407 255 0 0
0.357165 -0.001661 0.411762 0.928470 -0.000002 0.371407 255 0 0
0.357165 0.155413 0.411762 0.928470 -0.000002 0.371407 255 0 0
0.394331 0.166775 0.318852 0.928470 -0.000002 0.371407 255 0 0
0.398233 0.186065 0.309099 0.928470 -0.000002 0.371407 255 0 0
0.398233 -0.001661 0.309099 0.928469 -0.000000 0.371409 255 0 0
0.394331 0.166775 0.318852 0.928469 -0.000000 0.371409 255 0 0
0.394331 0.014717 0.318852 0.928469 -0.000000 0.371409 255 0 0
0.394331 -0.018039 0.318852 0.928470 0.000000 0.371406 255 255 255
0.361067 -0.145270 0.402009 0.928470 0.000000 0.371406 255 255 255
0.394331 -0.170098 0.318852 0.928470 0.000000 0.371406 255 255 255
0.394331 -0.170098 0.318852 0.928469 0.000000 0.371409 255 0 0
0.398233 -0.189388 0.309099 0.928469 0.000000 0.371409 255 0 0
0.394331 -0.018039 0.318852 0.928470 -0.000002 0.371407 255 0 0
0.357165 -0.158736 0.411762 0.928469 0.000000 0.371409 255 0 0
0.361067 -0.018039 0.402009 0.928469 0.000000 0.371409 255 0 0
0.357165 -0.001661 0.411762 0.928469 0.000000 0.371409 255 0 0
0.044449 -0.158736 0.411762 0.000000 -0.958203 0.286091 255 0 0
0.042181 -0.186323 0.319365 0.000000 -0.958203 0.286091 255 0 0
0.059489 -0.161801 0.401496 0.000000 -0.958203 0.286091 255 0 0
0.042181 0.183000 0.319365 0.000000 0.958202 0.286091 255 0 0
0.192348 0.183000 0.319365 0.000000 0.958202 0.286091 255 0 0
0.344069 0.158478 0.401496 0.000000 0.958202 0.286091 255 255 255
0.226755 0.183000 0.319365 0.000000 0.958202 0.286091 255 255 255
0.218982 0.158478 0.401496 0.000000 0.958202 0.286091 255 255 255
0.357165 0.155413 0.411762 -0.000001 0.958203 0.286091 255 0 0
0.376922 0.183000 0.319365 -0.000001 0.958203 0.286091 255 0 0
0.344069 0.158478 0.401496 -0.000001 0.958203 0.286091 255 0 0
0.357165 0.155413 0.411762 0.000000 0.958203 0.286090 255 0 0
0.218982 0.158478 0.401496 0.000000 0.958203 0.286090 255 0 0
0.200807 0.155413 0.411762 0.000000 0.958203 0.286090 255 0 0
0.218982 0.158478 0.401496 -0.000000 0.958202 0.286091 255 0 0
0.226755 0.183000 0.319365 -0.000000 0.958202 0.286091 255 0 0
0.059489 0.158478 0.401496 -0.000000 0.958202 0.286091 255 255 255
0.192348 0.183000 0.319365 -0.000000 0.958202 0.286091 255 255 255
0.042181 0.183000 0.319365 -0.000000 0.958202 0.286091 255 255 255
0.044449 0.155413 0.411762 0.000000 0.958202 0.286091 255 0 0
0.022814 0.186065 0.309099 0.000000 0.958202 0.286091 255 0 0
0.044449 0.155413 0.411762 -0.000000 0.958203 0.286090 255 0 0
0.184575 0.158478 0.401496 -0.000000 0.958203 0.286090 255 0 0
0.059489 0.158478 0.401496 -0.000000 0.958203 0.286090 255 0 0
0.200807 0.155413 0.411762 -0.000001 0.958202 0.286091 255 0 0
0.192348 0.183000 0.319365 -0.000001 0.958202 0.286091 255 0 0
0.184575 0.158478 0.401496 -0.000001 0.958202 0.286091 255 0 0
0.226755 -0.186323 0.319365 0.000000 -0.958203 0.286091 255 255 255
0.344069 -0.161801 0.401496 0.000000 -0.958203 0.286091 255 255 255
0.218982 -0.161801 0.401496 0.000000 -0.958203 0.286091 255 255 255
0.210523 -0.189388 0.309099 0.000000 -0.958203 0.286091 255 0 0
0.218982 -0.161801 0.401496 0.000000 -0.958203 0.286091 255 0 0
0.200807 -0.158736 0.411762 0.000000 -0.958203 0.286091 255 0 0
0.210523 -0.189388 0.309099 0.000000 -0.958202 0.286091 255 0 0
0.376922 -0.186323 0.319365 0.000000 -0.958202 0.286091 255 0 0
0.226755 -0.186323 0.319365 0.000000 -0.958202 0.286091 255 0 0
0.218982 -0.161801 0.401496 0.000000 -0.958203 0.286090 255 0 0
0.344069 -0.161801 0.401496 0.000000 -0.958203 0.286090 255 0 0
0.059489 -0.161801 0.401496 0.000000 -0.958203 0.286091 255 255 255
0.192348 -0.186323 0.319365 0.000000 -0.958203 0.286091 255 255 255
0.184575 -0.161801 0.401496 0.000000 -0.958203 0.286091 255 255 255
0.192348 -0.186323 0.319365 -0.000000 -0.958203 0.286091 255 0 0
0.044449 -0.158736 0.411762 0.000000 -0.958203 0.286090 255 0 0
0.184575 -0.161801 0.401496 0.000000 -0.958203 0.286090 255 0 0
0.200807 -0.158736 0.411762 0.000000 -0.958203 0.286090 255 0 0
0.042181 -0.186323 0.319365 0.000000 -0.958202 0.286091 255 0 0
0.022814 -0.189388 0.309099 0.000000 -0.958202 0.286091 255 0 0
0.953776 -0.001661 0.155261 0.165774 0.000000 0.986164 255 0 0
0.996385 -0.001661 0.148099 0.165774 0.000000 0.986164 255 0 0
0.996385 0.192313 0.148099 0.165774 0.000000 0.986164 255 0 0
0.006308 -0.195635 0.148099 -0.775375 -0.631501 0.000000 255 0 0
0.006308 -0.195635 0.001258 -0.775375 -0.631501 0.000000 255 0 0
0.022814 -0.215902 0.001258 -0.775375 -0.631501 0.000000 255 0 0
0.931458 0.212579 0.148099 0.000000 1.000000 -0.000000 255 0 0
0.953776 0.192313 0.157645 0.000000 0.426129 0.904662 255 0 0
0.996385 -0.001661 0.001258 1.000000 0.000000 -0.000000 255 0 0
0.044449 0.155413 0.411762 0.000000 0.000000 1.000000 255 0 0
0.931458 0.212579 0.001258 0.297962 0.954578 0.000000 255 0 0
0.398233 0.186065 0.309099 0.000000 0.000000 1.000000 255 0 0
0.953776 -0.001661 0.155261 0.952567 -0.003740 0.304308 255 0 0
0.953776 0.192313 0.157645 0.952567 -0.003740 0.304308 255 0 0
0.905368 0.186065 0.309099 0.952567 -0.003740 0.304308 255 0 0
0.006308 -0.195635 0.001258 -1.000000 0.000000 0.000000 255 0 0
0.022814 0.186065 0.309099 0.000000 0.999150 0.041216 255 0 0
0.022814 -0.189388 0.309099 -0.978508 0.000000 0.206209 255 0 0
0.996385 -0.195635 0.148099 0.165774 0.000000 0.986164 255 0 0
0.931458 -0.215902 0.148099 0.000000 -1.000000 0.000000 255 0 0
0.022814 -0.215902 0.148099 0.000000 -0.426130 0.904662 255 0 0
0.357165 -0.158736 0.411762 0.928470 0.000002 0.371407 255 0 0
0.398233 -0.189388 0.309099 0.928470 0.000002 0.371407 255 0 0
0.394331 -0.170098 0.318852 0.928470 0.000002 0.371407 255 0 0
0.357165 -0.158736 0.411762 -0.000000 0.000000 1.000000 255 0 0
0.044449 -0.158736 0.411762 0.000000 -0.000000 1.000000 255 0 0
0.931458 -0.215902 0.001258 0.297962 -0.954578 0.000000 255 0 0
0.398233 -0.189388 0.309099 0.000000 -0.000000 1.000000 255 0 0
0.905368 -0.189388 0.309099 0.953889 -0.000000 0.300160 255 0 0
0.022814 -0.189388 0.309099 0.000000 -0.999150 0.041216 255 0 0
0.022814 -0.001661 0.155178 -0.500621 -0.011008 0.865596 255 0 0
0.022814 0.192313 0.157645 -0.500621 -0.011008 0.865596 255 0 0
0.006308 0.192313 0.148099 -0.500621 -0.011008 0.865596 255 0 0
0.022814 -0.195635 0.157645 -1.000000 0.000000 -0.000000 255 0 0
0.022814 0.192313 0.157645 -1.000000 0.000000 0.000000 255 0 0
0.006308 -0.195635 0.148099 -0.394180 0.000000 0.919033 255 0 0
0.022814 0.212579 0.001258 -0.775375 0.631501 0.000000 255 0 0
0.006308 0.192313 0.001258 -0.775375 0.631501 0.000000 255 0 0
0.006308 0.192313 0.148099 -0.775375 0.631501 0.000000 255 0 0
0.394331 0.166775 0.318852 0.928470 0.000000 0.371406 255 255 255
0.398233 -0.001661 0.309099 0.928470 0.000002 0.371406 255 0 0
0.394331 0.014717 0.318852 0.928470 0.000002 0.371406 255 0 0
0.361067 0.014717 0.402009 0.928470 0.000002 0.371406 255 0 0
0.357165 0.155413 0.411762 0.928470 0.000002 0.371407 255 0 0
0.361067 0.141947 0.402009 0.928470 0.000002 0.371407 255 0 0
0.394331 0.166775 0.318852 0.928470 0.000002 0.371407 255 0 0
0.398233 0.186065 0.309099 0.928469 0.000000 0.371409 255 0 0
0.361067 -0.018039 0.402009 0.928470 -0.000000 0.371406 255 255 255
0.394331 -0.018039 0.318852 0.928469 -0.000000 0.371409 255 0 0
0.357165 -0.001661 0.411762 0.928470 0.000002 0.371406 255 0 0
0.361067 -0.018039 0.402009 0.928470 0.000002 0.371406 255 0 0
0.394331 -0.018039 0.318852 0.928470 0.000002 0.371406 255 0 0
0.361067 -0.145270 0.402009 0.928469 0.000000 0.371409 255 0 0
0.022814 -0.189388 0.309099 0.000000 -0.958203 0.286091 255 0 0
0.376922 0.183000 0.319365 -0.000000 0.958202 0.286091 255 255 255
0.357165 0.155413 0.411762 0.000000 0.958202 0.286091 255 0 0
0.344069 0.158478 0.401496 -0.000000 0.958203 0.286090 255 0 0
0.200807 0.155413 0.411762 0.000000 0.958202 0.286091 255 0 0
0.184575 0.158478 0.401496 0.000000 0.958202 0.286091 255 255 255
0.044449 0.155413 0.411762 0.000001 0.958203 0.286091 255 0 0
0.059489 0.158478 0.401496 0.000001 0.958203 0.286091 255 0 0
0.042181 0.183000 0.319365 0.000001 0.958203 0.286091 255 0 0
0.376922 -0.186323 0.319365 0.000000 -0.958203 0.286091 255 255 255
0.226755 -0.186323 0.319365 0.000000 -0.958203 0.286091 255 0 0
0.398233 -0.189388 0.309099 0.000000 -0.958203 0.286091 255 0 0
0.376922 -0.186323 0.319365 0.000000 -0.958203 0.286091 255 0 0
0.042181 -0.186323 0.319365 0.000000 -0.958203 0.286091 255 255 255
0.184575 -0.161801 0.401496 -0.000000 -0.958203 0.286091 255 0 0
0.059489 -0.161801 0.401496 0.000000 -0.958203 0.286090 255 0 0
0.192348 -0.186323 0.319365 0.000000 -0.958202 0.286091 255 0 0
3 0 1 2
3 3 4 5
3 6 7 8
3 9 10 11
3 8 12 6
3 13 14 15
3 16 17 18
3 19 20 21
3 12 22 6
3 23 24 25
3 26 27 28
3 29 30 31
3 32 33 34
3 35 36 37
3 22 38 6
3 39 40 41
3 5 42 3
3 43 44 45
3 46 47 48
3 42 49 3
3 50 51 52
3 0 53 54
3 55 56 57
3 7 58 8
3 59 60 61
3 62 8 58
3 63 64 65
3 66 67 68
3 69 62 58
3 70 71 72
3 73 26 74
3 75 76 31
3 77 78 79
3 80 81 82
3 69 58 83
3 40 84 41
3 56 55 85
3 86 87 88
3 89 48 90
3 91 85 55
3 92 93 94
3 95 96 97
3 98 99 100
3 101 102 103
3 104 101 103
3 62 105 106
3 107 108 109
3 106 110 12
3 111 112 113
3 114 115 116
3 110 117 12
3 118 119 62
3 120 121 122
3 123 124 125
3 126 127 128
3 129 130 131
3 132 133 134
3 129 135 136
3 125 137 123
3 138 139 140
3 141 142 143
3 50 144 145
3 146 147 148
3 149 150 151
3 152 153 154
3 50 155 156
3 157 158 159
3 160 144 161
3 162 163 164
3 165 166 167
3 168 169 170
3 171 172 173
3 174 175 176
3 92 177 178
3 179 180 181
3 173 182 171
3 183 184 185
3 174 186 187
3 0 54 1
3 6 38 7
3 188 189 190
3 8 106 12
3 191 192 193
3 16 194 17
3 19 195 20
3 12 117 22
3 23 140 24
3 26 196 27
3 75 31 30
3 30 197 75
3 35 198 36
3 39 199 40
3 200 201 202
3 46 203 47
3 42 204 49
3 50 156 51
3 0 205 53
3 7 83 58
3 206 189 188
3 62 106 8
3 63 207 64
3 66 208 67
3 69 118 62
3 209 210 211
3 73 196 26
3 212 31 76
3 75 213 76
3 80 214 81
3 40 215 84
3 43 45 216
3 89 46 48
3 91 217 85
3 92 178 93
3 218 219 220
3 101 221 102
3 104 222 101
3 62 119 105
3 95 97 223
3 106 105 110
3 224 225 226
3 120 227 121
3 228 229 230
3 231 232 233
3 129 234 130
3 132 235 133
3 129 236 135
3 237 238 239
3 138 240 139
3 141 241 142
3 50 161 144
3 146 242 147
3 243 52 51
3 152 244 153
3 50 245 155
3 157 246 158
3 247 248 249
3 162 154 163
3 245 50 145
3 168 250 169
3 171 251 172
3 171 252 253
3 92 185 177
3 179 254 180
3 173 255 182
3 183 256 184
3 174 257 186
